<?xml version="1.0" encoding="UTF-8"?>
<!DOCTYPE svg PUBLIC "-//W3C//DTD SVG 1.1//EN"
    "http://www.w3.org/Graphics/SVG/1.1/DTD/svg11.dtd">
<svg xmlns="http://www.w3.org/2000/svg" xmlns:xlink="http://www.w3.org/1999/xlink" version="1.1" width="480.0" height="480.0" font-size="1" viewBox="0 0 480 480"><g><g fill="rgb(0,0,0)" fill-opacity="0.0"><g stroke="rgb(0,0,0)" stroke-opacity="1.0" stroke-width="1.0e-2" stroke-linecap="butt" stroke-linejoin="miter" font-size="1.0em" stroke-miterlimit="10.0"><g transform="matrix(76.25470927628633,0.0,0.0,76.25470927628633,35.838448770977664,423.0113022630872)"><g stroke-width="0.0"><path d="M 5.5,0.0 l -6.106226635438361e-16,-4.8 h -5.5 l -6.106226635438361e-16,4.8 Z" /></g><g stroke="rgb(0,128,0)" stroke-opacity="1.0"><path d="M 0.2,-1.4976745786627421 l 0.1040816326530612,-4.728927235812663e-2 l 0.10408163265306125,0.35929599119883715 l 0.10408163265306114,0.3396102704244177 l 0.10408163265306125,-0.31837157070775723 l 0.10408163265306125,-1.4315819012496147 l 0.10408163265306114,0.21432623301017673 l 0.10408163265306114,2.0701216223677616 l 0.10408163265306136,-2.5020459806876096 l 0.10408163265306136,1.0319238693556407 l 0.10408163265306114,1.2365631813675404 l 0.10408163265306114,-2.885197139402949 l 0.10408163265306114,1.6042989052036676 l 0.10408163265306136,-3.124674936586813e-2 l 0.10408163265306092,0.8339318180113575 l 0.10408163265306136,0.8215189421292846 l 0.10408163265306114,-4.309137574530495 l 0.10408163265306136,1.8771022148532843 l 0.10408163265306136,-0.7437644285682925 l 0.10408163265306092,1.0109716192179778 l 0.1040816326530618,-1.1401664201344714 l 0.10408163265306092,-0.20216150662843724 l 0.10408163265306136,1.1130696998006422 l 0.10408163265306136,-1.6214223008198596 l 0.10408163265306092,0.8835258024565618 l 0.10408163265306136,-1.1738244400234081 l 0.10408163265306136,3.0541370856911048 l 0.10408163265306092,-9.573623473563009e-2 l 0.10408163265306092,-2.723575486772554 l 0.10408163265306136,3.808499788653175 l 0.10408163265306136,-2.609466996367944 l 0.10408163265306136,-1.4033545993727152 l 0.10408163265306092,2.4035736094832982 l 0.10408163265306136,-0.4726458882480453 l 0.10408163265306136,1.6363796221395297 l 0.10408163265306136,-3.206031086768797 l 0.10408163265306136,1.157378178783898 l 0.10408163265306003,1.2897337948527026 l 0.10408163265306136,0.620104104777311 l 0.10408163265306225,0.6412643252688159 l 0.10408163265306136,-2.4708317578834973 l 0.10408163265306136,2.6744226267874645 l 0.10408163265306047,-0.10775008898524674 l 0.10408163265306136,-5.9451532160126885e-3 l 0.10408163265306136,-3.8965389055757407 l 0.10408163265306136,1.0045758753597602 l 0.10408163265306136,-0.5574257743301252 l 0.10408163265306047,2.7740364073378077 l 0.10408163265306136,-2.8965697519059477 l 0.10408163265306136,2.5804516098717087 " /></g><g stroke="rgb(255,0,0)" stroke-opacity="1.0"><path d="M 0.2,-0.8215442975679239 l 0.1040816326530612,-4.797150000701689e-2 l 0.10408163265306125,-3.045855596896545 l 0.10408163265306114,2.7105811240492956 l 0.10408163265306125,-1.3447238598913442 l 0.10408163265306125,-1.3360107890287223 l 0.10408163265306114,0.8819312560581594 l 0.10408163265306114,1.4921682860468366 l 0.10408163265306136,-1.8593138188596294 l 0.10408163265306136,2.46172296117604 l 0.10408163265306114,0.12311658712546336 l 0.10408163265306114,-2.1341218217514086 l 0.10408163265306114,-0.9348643037718105 l 0.10408163265306136,2.3914404656104677 l 0.10408163265306092,0.34122972753405345 l 0.10408163265306136,-0.36338222849962243 l 0.10408163265306114,1.0079391925435701 l 0.10408163265306136,-0.8291764439329934 l 0.10408163265306136,-0.173233193943936 l 0.10408163265306092,-2.213602285391561 l 0.1040816326530618,1.0966388103446354 l 0.10408163265306092,1.8084660833749349 l 0.10408163265306136,-3.509335410978178 l 0.10408163265306136,1.1869205488443062 l 0.10408163265306092,-0.3763001218116102 l 0.10408163265306136,-0.4788072850770124 l 0.10408163265306136,2.518077518843948 l 0.10408163265306092,-2.1520919463622095 l 0.10408163265306092,2.4282860430476463 l 0.10408163265306136,-0.5842679442720016 l 0.10408163265306136,0.7293127083976145 l 0.10408163265306136,-0.3493809073289451 l 0.10408163265306092,-0.8807698890469966 l 0.10408163265306136,-2.3418281785024124 l 0.10408163265306136,1.3579889498133464 l 0.10408163265306136,2.4301668270653907 l 0.10408163265306136,-0.9432999579060177 l 0.10408163265306003,-0.3803133518462656 l 0.10408163265306136,-9.428125537357523e-2 l 0.10408163265306225,-0.9709576393871395 l 0.10408163265306136,2.0344859268766733 l 0.10408163265306136,0.40568648279694064 l 0.10408163265306047,-0.310438223899842 l 0.10408163265306136,-3.2114129627159507 l 0.10408163265306136,3.7301791768792674 l 0.10408163265306136,-3.272155079367398 l 0.10408163265306136,3.4866728240619995 l 0.10408163265306047,-1.1762058328581984 l 0.10408163265306136,8.844497885962177e-2 l 0.10408163265306136,-0.7158975689556555 " /></g><g><path d="M 5.300000000000005,0.0 h 0.0 " /><path d="M 5.195918367346944,0.0 h 0.0 " /><path d="M 5.091836734693882,0.0 h 0.0 " /><path d="M 4.987755102040821,0.0 h 0.0 " /><path d="M 4.88367346938776,0.0 h 0.0 " /><path d="M 4.779591836734698,0.0 h 0.0 " /><path d="M 4.675510204081637,0.0 h 0.0 " /><path d="M 4.571428571428576,0.0 h 0.0 " /><path d="M 4.467346938775514,0.0 h 0.0 " /><path d="M 4.363265306122453,0.0 h 0.0 " /><path d="M 4.2591836734693915,0.0 h 0.0 " /><path d="M 4.15510204081633,0.0 h 0.0 " /><path d="M 4.051020408163269,0.0 h 0.0 " /><path d="M 3.946938775510208,0.0 h 0.0 " /><path d="M 3.8428571428571465,0.0 h 0.0 " /><path d="M 3.738775510204085,0.0 h 0.0 " /><path d="M 3.634693877551024,0.0 h 0.0 " /><path d="M 3.5306122448979624,0.0 h 0.0 " /><path d="M 3.426530612244901,0.0 h 0.0 " /><path d="M 3.3224489795918397,0.0 h 0.0 " /><path d="M 3.2183673469387784,0.0 h 0.0 " /><path d="M 3.114285714285717,0.0 h 0.0 " /><path d="M 3.0102040816326556,0.0 h 0.0 " /><path d="M 2.9061224489795943,0.0 h 0.0 " /><path d="M 2.802040816326533,0.0 h 0.0 " /><path d="M 2.6979591836734715,0.0 h 0.0 " /><path d="M 2.59387755102041,0.0 h 0.0 " /><path d="M 2.489795918367349,0.0 h 0.0 " /><path d="M 2.3857142857142875,0.0 h 0.0 " /><path d="M 2.281632653061226,0.0 h 0.0 " /><path d="M 2.1775510204081647,0.0 h 0.0 " /><path d="M 2.0734693877551034,0.0 h 0.0 " /><path d="M 1.9693877551020418,0.0 h 0.0 " /><path d="M 1.8653061224489804,0.0 h 0.0 " /><path d="M 1.761224489795919,0.0 h 0.0 " /><path d="M 1.6571428571428577,0.0 h 0.0 " /><path d="M 1.5530612244897963,0.0 h 0.0 " /><path d="M 1.448979591836735,0.0 h 0.0 " /><path d="M 1.3448979591836736,0.0 h 0.0 " /><path d="M 1.2408163265306122,0.0 h 0.0 " /><path d="M 1.136734693877551,0.0 h 0.0 " /><path d="M 1.0326530612244897,0.0 h 0.0 " /><path d="M 0.9285714285714286,0.0 h 0.0 " /><path d="M 0.8244897959183672,0.0 h 0.0 " /><path d="M 0.7204081632653061,0.0 h 0.0 " /><path d="M 0.6163265306122448,0.0 h 0.0 " /><path d="M 0.5122448979591836,0.0 h 0.0 " /><path d="M 0.40816326530612246,0.0 h 0.0 " /><path d="M 0.3040816326530612,0.0 h 0.0 " /><path d="M 0.2,0.0 h 0.0 " /><path d="M 5.300000000000005,0.0 v -0.1 " /><path d="M 5.195918367346944,0.0 v -0.1 " /><path d="M 5.091836734693882,0.0 v -0.1 " /><path d="M 4.987755102040821,0.0 v -0.1 " /><path d="M 4.88367346938776,0.0 v -0.1 " /><path d="M 4.779591836734698,0.0 v -0.1 " /><path d="M 4.675510204081637,0.0 v -0.1 " /><path d="M 4.571428571428576,0.0 v -0.1 " /><path d="M 4.467346938775514,0.0 v -0.1 " /><path d="M 4.363265306122453,0.0 v -0.1 " /><path d="M 4.2591836734693915,0.0 v -0.1 " /><path d="M 4.15510204081633,0.0 v -0.1 " /><path d="M 4.051020408163269,0.0 v -0.1 " /><path d="M 3.946938775510208,0.0 v -0.1 " /><path d="M 3.8428571428571465,0.0 v -0.1 " /><path d="M 3.738775510204085,0.0 v -0.1 " /><path d="M 3.634693877551024,0.0 v -0.1 " /><path d="M 3.5306122448979624,0.0 v -0.1 " /><path d="M 3.426530612244901,0.0 v -0.1 " /><path d="M 3.3224489795918397,0.0 v -0.1 " /><path d="M 3.2183673469387784,0.0 v -0.1 " /><path d="M 3.114285714285717,0.0 v -0.1 " /><path d="M 3.0102040816326556,0.0 v -0.1 " /><path d="M 2.9061224489795943,0.0 v -0.1 " /><path d="M 2.802040816326533,0.0 v -0.1 " /><path d="M 2.6979591836734715,0.0 v -0.1 " /><path d="M 2.59387755102041,0.0 v -0.1 " /><path d="M 2.489795918367349,0.0 v -0.1 " /><path d="M 2.3857142857142875,0.0 v -0.1 " /><path d="M 2.281632653061226,0.0 v -0.1 " /><path d="M 2.1775510204081647,0.0 v -0.1 " /><path d="M 2.0734693877551034,0.0 v -0.1 " /><path d="M 1.9693877551020418,0.0 v -0.1 " /><path d="M 1.8653061224489804,0.0 v -0.1 " /><path d="M 1.761224489795919,0.0 v -0.1 " /><path d="M 1.6571428571428577,0.0 v -0.1 " /><path d="M 1.5530612244897963,0.0 v -0.1 " /><path d="M 1.448979591836735,0.0 v -0.1 " /><path d="M 1.3448979591836736,0.0 v -0.1 " /><path d="M 1.2408163265306122,0.0 v -0.1 " /><path d="M 1.136734693877551,0.0 v -0.1 " /><path d="M 1.0326530612244897,0.0 v -0.1 " /><path d="M 0.9285714285714286,0.0 v -0.1 " /><path d="M 0.8244897959183672,0.0 v -0.1 " /><path d="M 0.7204081632653061,0.0 v -0.1 " /><path d="M 0.6163265306122448,0.0 v -0.1 " /><path d="M 0.5122448979591836,0.0 v -0.1 " /><path d="M 0.40816326530612246,0.0 v -0.1 " /><path d="M 0.3040816326530612,0.0 v -0.1 " /><path d="M 0.2,0.0 v -0.1 " /></g><path d="M 0.0,0.0 h 5.5 " /><g><g fill="rgb(0,0,0)" fill-opacity="1.0" stroke-width="0.0"><g fill="rgb(0,0,0)" fill-opacity="1.0"><g fill="rgb(0,0,0)" fill-opacity="1.0"><path d="M 5.584908789386402,-4.5530679933665 ZM 5.616086235489221,-4.63217247097844 c -3.150912106135987e-3,0.0 -1.0447761194029851e-2,2.9850746268656717e-3 -1.4096185737976783e-2 4.643449419568822e-3l -1.990049751243781e-3,-5.140961857379768e-3 c 1.4593698175787729e-2,-6.7993366500829185e-3 2.023217247097844e-2,-1.0281923714759536e-2 2.8524046434494195e-2 -1.6252072968490877e-2h 3.150912106135987e-3 v 8.341625207296849e-2 c 0.0,5.970149253731343e-3 8.291873963515755e-4,7.6285240464344945e-3 6.301824212271974e-3 7.6285240464344945e-3h 8.623548922056384e-3 c 4.975124378109452e-4,0.0 1.3266998341625207e-3,3.316749585406302e-4 1.3266998341625207e-3 1.3266998341625207e-3v 3.648424543946932e-3 l -2.271973466003317e-2,-3.316749585406302e-4 l -2.3051409618573798e-2,3.316749585406302e-4 v -3.648424543946932e-3 c 1.658374792703151e-4,-4.975124378109452e-4 3.316749585406302e-4,-1.3266998341625207e-3 1.3266998341625207e-3 -1.3266998341625207e-3h 9.950248756218905e-3 c 6.301824212271974e-3,0.0 6.301824212271974e-3,-2.8192371475953566e-3 6.301824212271974e-3 -7.6285240464344945e-3v -5.704809286898839e-2 c 0.0,-5.638474295190713e-3 0.0,-9.618573797678276e-3 -3.648424543946932e-3 -9.618573797678276e-3ZM 5.657545605306799,-4.5530679933665 ZM 5.666998341625208,-4.559867330016583 c 0.0,-4.809286898839138e-3 3.980099502487562e-3,-8.789386401326699e-3 8.789386401326699e-3 -8.789386401326699e-3c 4.809286898839138e-3,0.0 8.789386401326699e-3,3.980099502487562e-3 8.789386401326699e-3 8.789386401326699e-3c 0.0,4.809286898839138e-3 -3.980099502487562e-3,8.789386401326699e-3 -8.789386401326699e-3 8.789386401326699e-3c -4.809286898839138e-3,0.0 -8.789386401326699e-3,-3.980099502487562e-3 -8.789386401326699e-3 -8.789386401326699e-3ZM 5.693864013266999,-4.5530679933665 ZM 5.730182421227197,-4.64311774461028 c -7.131011608623549e-3,0.0 -1.7578772802653398e-2,6.965174129353234e-3 -1.7578772802653398e-2 4.560530679933665e-2c 0.0,1.3598673300165837e-2 2.4875621890547263e-3,4.0961857379767826e-2 1.7081260364842456e-2 4.0961857379767826e-2c 2.8192371475953566e-3,0.0 1.077943615257048e-2,-1.824212271973466e-3 1.4262023217247097e-2 -1.4759535655058043e-2c 2.155887230514096e-3,-7.960199004975124e-3 3.316749585406302e-3,-1.791044776119403e-2 3.316749585406302e-3 -3.233830845771144e-2c 0.0,-2.1061359867330015e-2 -5.306799336650083e-3,-3.283582089552239e-2 -1.011608623548922e-2 -3.6981757877280266e-2c -1.824212271973466e-3,-1.658374792703151e-3 -4.311774461028192e-3,-2.4875621890547263e-3 -6.965174129353234e-3 -2.4875621890547263e-3ZM 5.730182421227197,-4.64311774461028 ZM 5.729519071310117,-4.5510779436152555 c -1.7744610281923714e-2,0.0 -2.96849087893864e-2,-2.271973466003317e-2 -2.96849087893864e-2 -4.809286898839137e-2c 0.0,-3.101160862354892e-2 1.4759535655058043e-2,-4.975124378109453e-2 3.034825870646766e-2 -4.975124378109453e-2c 7.131011608623549e-3,0.0 1.4262023217247097e-2,4.477611940298508e-3 1.9071310116086235e-2 1.0945273631840795e-2c 6.965174129353234e-3,9.286898839137645e-3 1.0613598673300166e-2,2.1724709784411277e-2 1.0613598673300166e-2 3.731343283582089e-2c 0.0,3.681592039800995e-2 -1.824212271973466e-2,4.958540630182421e-2 -3.034825870646766e-2 4.958540630182421e-2Z" /></g></g></g><g fill="rgb(0,0,0)" fill-opacity="1.0" stroke-width="0.0"><g fill="rgb(0,0,0)" fill-opacity="1.0"><g fill="rgb(0,0,0)" fill-opacity="1.0"><path d="M 5.594029850746269,-3.4530679933665 ZM 5.630348258706468,-3.543117744610281 c -7.131011608623549e-3,0.0 -1.7578772802653398e-2,6.965174129353234e-3 -1.7578772802653398e-2 4.560530679933665e-2c 0.0,1.3598673300165837e-2 2.4875621890547263e-3,4.0961857379767826e-2 1.7081260364842456e-2 4.0961857379767826e-2c 2.8192371475953566e-3,0.0 1.077943615257048e-2,-1.824212271973466e-3 1.4262023217247097e-2 -1.4759535655058043e-2c 2.155887230514096e-3,-7.960199004975124e-3 3.316749585406302e-3,-1.791044776119403e-2 3.316749585406302e-3 -3.233830845771144e-2c 0.0,-2.1061359867330015e-2 -5.306799336650083e-3,-3.283582089552239e-2 -1.011608623548922e-2 -3.6981757877280266e-2c -1.824212271973466e-3,-1.658374792703151e-3 -4.311774461028192e-3,-2.4875621890547263e-3 -6.965174129353234e-3 -2.4875621890547263e-3ZM 5.630348258706468,-3.543117744610281 ZM 5.629684908789387,-3.4510779436152563 c -1.7744610281923714e-2,0.0 -2.96849087893864e-2,-2.271973466003317e-2 -2.96849087893864e-2 -4.809286898839137e-2c 0.0,-3.101160862354892e-2 1.4759535655058043e-2,-4.975124378109453e-2 3.034825870646766e-2 -4.975124378109453e-2c 7.131011608623549e-3,0.0 1.4262023217247097e-2,4.477611940298508e-3 1.9071310116086235e-2 1.0945273631840795e-2c 6.965174129353234e-3,9.286898839137645e-3 1.0613598673300166e-2,2.1724709784411277e-2 1.0613598673300166e-2 3.731343283582089e-2c 0.0,3.681592039800995e-2 -1.824212271973466e-2,4.958540630182421e-2 -3.034825870646766e-2 4.958540630182421e-2ZM 5.666666666666667,-3.4530679933665 ZM 5.6761194029850754,-3.459867330016583 c 0.0,-4.809286898839138e-3 3.980099502487562e-3,-8.789386401326699e-3 8.789386401326699e-3 -8.789386401326699e-3c 4.809286898839138e-3,0.0 8.789386401326699e-3,3.980099502487562e-3 8.789386401326699e-3 8.789386401326699e-3c 0.0,4.809286898839138e-3 -3.980099502487562e-3,8.789386401326699e-3 -8.789386401326699e-3 8.789386401326699e-3c -4.809286898839138e-3,0.0 -8.789386401326699e-3,-3.980099502487562e-3 -8.789386401326699e-3 -8.789386401326699e-3ZM 5.702985074626866,-3.4530679933665 ZM 5.754228855721394,-3.481094527363183 c 0.0,-1.7081260364842456e-2 -9.286898839137645e-3,-2.5538971807628524e-2 -1.956882255389718e-2 -2.5538971807628524e-2c -7.6285240464344945e-3,0.0 -1.3432835820895522e-2,1.1608623548922056e-3 -1.990049751243781e-2 3.8142620232172473e-3l 5.306799336650083e-3,-4.527363184079602e-2 c 5.4726368159203976e-3,4.975124378109452e-4 1.1111111111111112e-2,6.633499170812604e-4 1.691542288557214e-2 6.633499170812604e-4c 8.291873963515755e-3,0.0 1.691542288557214e-2,-4.975124378109452e-4 2.5870646766169153e-2 -1.4925373134328358e-3l 9.950248756218905e-4,4.975124378109452e-4 l -2.4875621890547263e-3,1.077943615257048e-2 c -6.467661691542288e-3,6.633499170812604e-4 -1.1774461028192372e-2,8.291873963515755e-4 -1.6417910447761194e-2 8.291873963515755e-4c -7.462686567164179e-3,0.0 -1.3101160862354893e-2,-6.633499170812604e-4 -1.890547263681592e-2 -1.3266998341625207e-3l -3.150912106135987e-3,2.6202321724709786e-2 c 3.482587064676617e-3,-1.3266998341625207e-3 9.45273631840796e-3,-2.4875621890547263e-3 1.5920398009950248e-2 -2.4875621890547263e-3c 1.7578772802653398e-2,0.0 2.736318407960199e-2,1.5257048092868989e-2 2.736318407960199e-2 3.0514096185737978e-2c 0.0,1.857379767827529e-2 -1.2935323383084577e-2,3.283582089552239e-2 -3.167495854063018e-2 3.283582089552239e-2c -9.45273631840796e-3,0.0 -2.321724709784411e-2,-5.306799336650083e-3 -2.321724709784411e-2 -1.1774461028192372e-2c 0.0,-3.150912106135987e-3 2.6533996683250414e-3,-5.306799336650083e-3 5.638474295190713e-3 -5.306799336650083e-3c 3.316749585406302e-3,0.0 5.4726368159203976e-3,2.4875621890547263e-3 7.462686567164179e-3 5.140961857379768e-3c 2.4875621890547263e-3,2.9850746268656717e-3 5.140961857379768e-3,6.301824212271974e-3 1.0447761194029851e-2 6.301824212271974e-3c 1.0613598673300166e-2,0.0 1.9402985074626865e-2,-9.950248756218905e-3 1.9402985074626865e-2 -2.437810945273632e-2Z" /></g></g></g><g fill="rgb(0,0,0)" fill-opacity="1.0" stroke-width="0.0"><g fill="rgb(0,0,0)" fill-opacity="1.0"><g fill="rgb(0,0,0)" fill-opacity="1.0"><path d="M 5.594029850746269,-2.3530679933665004 ZM 5.6303482587064675,-2.4431177446102814 c -7.131011608623549e-3,0.0 -1.7578772802653398e-2,6.965174129353234e-3 -1.7578772802653398e-2 4.560530679933665e-2c 0.0,1.3598673300165837e-2 2.4875621890547263e-3,4.0961857379767826e-2 1.7081260364842456e-2 4.0961857379767826e-2c 2.8192371475953566e-3,0.0 1.077943615257048e-2,-1.824212271973466e-3 1.4262023217247097e-2 -1.4759535655058043e-2c 2.155887230514096e-3,-7.960199004975124e-3 3.316749585406302e-3,-1.791044776119403e-2 3.316749585406302e-3 -3.233830845771144e-2c 0.0,-2.1061359867330015e-2 -5.306799336650083e-3,-3.283582089552239e-2 -1.011608623548922e-2 -3.6981757877280266e-2c -1.824212271973466e-3,-1.658374792703151e-3 -4.311774461028192e-3,-2.4875621890547263e-3 -6.965174129353234e-3 -2.4875621890547263e-3ZM 5.6303482587064675,-2.4431177446102814 ZM 5.629684908789386,-2.3510779436152567 c -1.7744610281923714e-2,0.0 -2.96849087893864e-2,-2.271973466003317e-2 -2.96849087893864e-2 -4.809286898839137e-2c 0.0,-3.101160862354892e-2 1.4759535655058043e-2,-4.975124378109453e-2 3.034825870646766e-2 -4.975124378109453e-2c 7.131011608623549e-3,0.0 1.4262023217247097e-2,4.477611940298508e-3 1.9071310116086235e-2 1.0945273631840795e-2c 6.965174129353234e-3,9.286898839137645e-3 1.0613598673300166e-2,2.1724709784411277e-2 1.0613598673300166e-2 3.731343283582089e-2c 0.0,3.681592039800995e-2 -1.824212271973466e-2,4.958540630182421e-2 -3.034825870646766e-2 4.958540630182421e-2ZM 5.666666666666667,-2.3530679933665004 ZM 5.676119402985075,-2.3598673300165833 c 0.0,-4.809286898839138e-3 3.980099502487562e-3,-8.789386401326699e-3 8.789386401326699e-3 -8.789386401326699e-3c 4.809286898839138e-3,0.0 8.789386401326699e-3,3.980099502487562e-3 8.789386401326699e-3 8.789386401326699e-3c 0.0,4.809286898839138e-3 -3.980099502487562e-3,8.789386401326699e-3 -8.789386401326699e-3 8.789386401326699e-3c -4.809286898839138e-3,0.0 -8.789386401326699e-3,-3.980099502487562e-3 -8.789386401326699e-3 -8.789386401326699e-3ZM 5.7029850746268655,-2.3530679933665004 ZM 5.739303482587065,-2.4431177446102814 c -7.131011608623549e-3,0.0 -1.7578772802653398e-2,6.965174129353234e-3 -1.7578772802653398e-2 4.560530679933665e-2c 0.0,1.3598673300165837e-2 2.4875621890547263e-3,4.0961857379767826e-2 1.7081260364842456e-2 4.0961857379767826e-2c 2.8192371475953566e-3,0.0 1.077943615257048e-2,-1.824212271973466e-3 1.4262023217247097e-2 -1.4759535655058043e-2c 2.155887230514096e-3,-7.960199004975124e-3 3.316749585406302e-3,-1.791044776119403e-2 3.316749585406302e-3 -3.233830845771144e-2c 0.0,-2.1061359867330015e-2 -5.306799336650083e-3,-3.283582089552239e-2 -1.011608623548922e-2 -3.6981757877280266e-2c -1.824212271973466e-3,-1.658374792703151e-3 -4.311774461028192e-3,-2.4875621890547263e-3 -6.965174129353234e-3 -2.4875621890547263e-3ZM 5.739303482587065,-2.4431177446102814 ZM 5.738640132669984,-2.3510779436152567 c -1.7744610281923714e-2,0.0 -2.96849087893864e-2,-2.271973466003317e-2 -2.96849087893864e-2 -4.809286898839137e-2c 0.0,-3.101160862354892e-2 1.4759535655058043e-2,-4.975124378109453e-2 3.034825870646766e-2 -4.975124378109453e-2c 7.131011608623549e-3,0.0 1.4262023217247097e-2,4.477611940298508e-3 1.9071310116086235e-2 1.0945273631840795e-2c 6.965174129353234e-3,9.286898839137645e-3 1.0613598673300166e-2,2.1724709784411277e-2 1.0613598673300166e-2 3.731343283582089e-2c 0.0,3.681592039800995e-2 -1.824212271973466e-2,4.958540630182421e-2 -3.034825870646766e-2 4.958540630182421e-2Z" /></g></g></g><g fill="rgb(0,0,0)" fill-opacity="1.0" stroke-width="0.0"><g fill="rgb(0,0,0)" fill-opacity="1.0"><g fill="rgb(0,0,0)" fill-opacity="1.0"><path d="M 5.5945273631840795,-1.2530679933665008 ZM 5.639966832504146,-1.292205638474295 h -3.747927031509122e-2 c -1.492537313432836e-3,0.0 -2.4875621890547268e-3,-1.3266998341625207e-3 -2.4875621890547268e-3 -2.8192371475953566e-3c 0.0,-2.6533996683250414e-3 2.1558872305140965e-3,-6.135986733001658e-3 4.1459369817578775e-3 -6.135986733001658e-3h 3.7976782752902165e-2 c 1.6583747927031512e-3,0.0 2.3217247097844116e-3,1.4925373134328358e-3 2.3217247097844116e-3 2.9850746268656717e-3c 0.0,1.824212271973466e-3 -2.3217247097844116e-3,5.970149253731343e-3 -4.477611940298509e-3 5.970149253731343e-3ZM 5.649751243781094,-1.2530679933665008 ZM 5.686069651741293,-1.3431177446102818 c -7.1310116086235505e-3,0.0 -1.75787728026534e-2,6.965174129353234e-3 -1.75787728026534e-2 4.560530679933665e-2c 0.0,1.3598673300165837e-2 2.4875621890547268e-3,4.0961857379767826e-2 1.7081260364842456e-2 4.0961857379767826e-2c 2.819237147595357e-3,0.0 1.0779436152570482e-2,-1.824212271973466e-3 1.4262023217247101e-2 -1.4759535655058043e-2c 2.1558872305140965e-3,-7.960199004975124e-3 3.3167495854063023e-3,-1.791044776119403e-2 3.3167495854063023e-3 -3.233830845771144e-2c 0.0,-2.1061359867330015e-2 -5.306799336650084e-3,-3.283582089552239e-2 -1.0116086235489222e-2 -3.6981757877280266e-2c -1.8242122719734663e-3,-1.658374792703151e-3 -4.311774461028193e-3,-2.4875621890547263e-3 -6.965174129353235e-3 -2.4875621890547263e-3ZM 5.686069651741293,-1.3431177446102818 ZM 5.685406301824212,-1.2510779436152568 c -1.7744610281923718e-2,0.0 -2.9684908789386406e-2,-2.271973466003317e-2 -2.9684908789386406e-2 -4.809286898839137e-2c 0.0,-3.101160862354892e-2 1.4759535655058045e-2,-4.975124378109453e-2 3.0348258706467665e-2 -4.975124378109453e-2c 7.1310116086235505e-3,0.0 1.4262023217247101e-2,4.477611940298508e-3 1.907131011608624e-2 1.0945273631840795e-2c 6.965174129353235e-3,9.286898839137645e-3 1.0613598673300167e-2,2.1724709784411277e-2 1.0613598673300167e-2 3.731343283582089e-2c 0.0,3.681592039800995e-2 -1.8242122719734664e-2,4.958540630182421e-2 -3.0348258706467665e-2 4.958540630182421e-2ZM 5.722388059701492,-1.2530679933665008 ZM 5.7318407960199,-1.2598673300165837 c 0.0,-4.809286898839138e-3 3.980099502487563e-3,-8.789386401326699e-3 8.7893864013267e-3 -8.789386401326699e-3c 4.809286898839138e-3,0.0 8.7893864013267e-3,3.980099502487562e-3 8.7893864013267e-3 8.789386401326699e-3c 0.0,4.809286898839138e-3 -3.980099502487563e-3,8.789386401326699e-3 -8.7893864013267e-3 8.789386401326699e-3c -4.809286898839138e-3,0.0 -8.7893864013267e-3,-3.980099502487562e-3 -8.7893864013267e-3 -8.789386401326699e-3ZM 5.758706467661691,-1.2530679933665008 ZM 5.809950248756219,-1.281094527363184 c 0.0,-1.7081260364842456e-2 -9.286898839137647e-3,-2.5538971807628524e-2 -1.9568822553897185e-2 -2.5538971807628524e-2c -7.628524046434495e-3,0.0 -1.3432835820895524e-2,1.1608623548922056e-3 -1.9900497512437814e-2 3.8142620232172473e-3l 5.306799336650084e-3,-4.527363184079602e-2 c 5.472636815920398e-3,4.975124378109452e-4 1.1111111111111113e-2,6.633499170812604e-4 1.6915422885572143e-2 6.633499170812604e-4c 8.291873963515755e-3,0.0 1.6915422885572143e-2,-4.975124378109452e-4 2.587064676616916e-2 -1.4925373134328358e-3l 9.950248756218907e-4,4.975124378109452e-4 l -2.4875621890547268e-3,1.077943615257048e-2 c -6.46766169154229e-3,6.633499170812604e-4 -1.1774461028192374e-2,8.291873963515755e-4 -1.6417910447761197e-2 8.291873963515755e-4c -7.46268656716418e-3,0.0 -1.3101160862354895e-2,-6.633499170812604e-4 -1.8905472636815922e-2 -1.3266998341625207e-3l -3.1509121061359872e-3,2.6202321724709786e-2 c 3.4825870646766175e-3,-1.3266998341625207e-3 9.452736318407961e-3,-2.4875621890547263e-3 1.592039800995025e-2 -2.4875621890547263e-3c 1.75787728026534e-2,0.0 2.7363184079601994e-2,1.5257048092868989e-2 2.7363184079601994e-2 3.0514096185737978e-2c 0.0,1.857379767827529e-2 -1.293532338308458e-2,3.283582089552239e-2 -3.167495854063019e-2 3.283582089552239e-2c -9.452736318407961e-3,0.0 -2.3217247097844118e-2,-5.306799336650083e-3 -2.3217247097844118e-2 -1.1774461028192372e-2c 0.0,-3.150912106135987e-3 2.653399668325042e-3,-5.306799336650083e-3 5.638474295190714e-3 -5.306799336650083e-3c 3.3167495854063023e-3,0.0 5.472636815920398e-3,2.4875621890547263e-3 7.46268656716418e-3 5.140961857379768e-3c 2.4875621890547268e-3,2.9850746268656717e-3 5.140961857379769e-3,6.301824212271974e-3 1.0447761194029853e-2 6.301824212271974e-3c 1.0613598673300167e-2,0.0 1.9402985074626868e-2,-9.950248756218905e-3 1.9402985074626868e-2 -2.437810945273632e-2Z" /></g></g></g><g fill="rgb(0,0,0)" fill-opacity="1.0" stroke-width="0.0"><g fill="rgb(0,0,0)" fill-opacity="1.0"><g fill="rgb(0,0,0)" fill-opacity="1.0"><path d="M 5.5945273631840795,-0.15306799336650084 ZM 5.639966832504146,-0.1922056384742952 h -3.747927031509122e-2 c -1.492537313432836e-3,0.0 -2.4875621890547268e-3,-1.3266998341625207e-3 -2.4875621890547268e-3 -2.8192371475953566e-3c 0.0,-2.6533996683250414e-3 2.1558872305140965e-3,-6.135986733001658e-3 4.1459369817578775e-3 -6.135986733001658e-3h 3.7976782752902165e-2 c 1.6583747927031512e-3,0.0 2.3217247097844116e-3,1.4925373134328358e-3 2.3217247097844116e-3 2.9850746268656717e-3c 0.0,1.824212271973466e-3 -2.3217247097844116e-3,5.970149253731343e-3 -4.477611940298509e-3 5.970149253731343e-3ZM 5.649751243781095,-0.15306799336650084 ZM 5.680928689883914,-0.23217247097844113 c -3.1509121061359872e-3,0.0 -1.0447761194029853e-2,2.9850746268656717e-3 -1.4096185737976785e-2 4.643449419568822e-3l -1.9900497512437814e-3,-5.140961857379768e-3 c 1.459369817578773e-2,-6.7993366500829185e-3 2.0232172470978443e-2,-1.0281923714759536e-2 2.8524046434494202e-2 -1.6252072968490877e-2h 3.1509121061359872e-3 v 8.341625207296849e-2 c 0.0,5.970149253731343e-3 8.291873963515756e-4,7.6285240464344945e-3 6.3018242122719744e-3 7.6285240464344945e-3h 8.623548922056386e-3 c 4.975124378109454e-4,0.0 1.326699834162521e-3,3.316749585406302e-4 1.326699834162521e-3 1.3266998341625207e-3v 3.648424543946932e-3 l -2.2719734660033172e-2,-3.316749585406302e-4 l -2.30514096185738e-2,3.316749585406302e-4 v -3.648424543946932e-3 c 1.6583747927031512e-4,-4.975124378109452e-4 3.3167495854063023e-4,-1.3266998341625207e-3 1.326699834162521e-3 -1.3266998341625207e-3h 9.950248756218907e-3 c 6.3018242122719744e-3,0.0 6.3018242122719744e-3,-2.8192371475953566e-3 6.3018242122719744e-3 -7.6285240464344945e-3v -5.704809286898839e-2 c 0.0,-5.638474295190713e-3 0.0,-9.618573797678276e-3 -3.6484245439469326e-3 -9.618573797678276e-3ZM 5.722388059701492,-0.15306799336650084 ZM 5.731840796019901,-0.15986733001658376 c 0.0,-4.809286898839138e-3 3.980099502487563e-3,-8.789386401326699e-3 8.7893864013267e-3 -8.789386401326699e-3c 4.809286898839138e-3,0.0 8.7893864013267e-3,3.980099502487562e-3 8.7893864013267e-3 8.789386401326699e-3c 0.0,4.809286898839138e-3 -3.980099502487563e-3,8.789386401326699e-3 -8.7893864013267e-3 8.789386401326699e-3c -4.809286898839138e-3,0.0 -8.7893864013267e-3,-3.980099502487562e-3 -8.7893864013267e-3 -8.789386401326699e-3ZM 5.758706467661692,-0.15306799336650084 ZM 5.79502487562189,-0.24311774461028193 c -7.1310116086235505e-3,0.0 -1.75787728026534e-2,6.965174129353234e-3 -1.75787728026534e-2 4.560530679933665e-2c 0.0,1.3598673300165837e-2 2.4875621890547268e-3,4.0961857379767826e-2 1.7081260364842456e-2 4.0961857379767826e-2c 2.819237147595357e-3,0.0 1.0779436152570482e-2,-1.824212271973466e-3 1.4262023217247101e-2 -1.4759535655058043e-2c 2.1558872305140965e-3,-7.960199004975124e-3 3.3167495854063023e-3,-1.791044776119403e-2 3.3167495854063023e-3 -3.233830845771144e-2c 0.0,-2.1061359867330015e-2 -5.306799336650084e-3,-3.283582089552239e-2 -1.0116086235489222e-2 -3.6981757877280266e-2c -1.8242122719734663e-3,-1.658374792703151e-3 -4.311774461028193e-3,-2.4875621890547263e-3 -6.965174129353235e-3 -2.4875621890547263e-3ZM 5.79502487562189,-0.24311774461028193 ZM 5.79436152570481,-0.15107794361525706 c -1.7744610281923718e-2,0.0 -2.9684908789386406e-2,-2.271973466003317e-2 -2.9684908789386406e-2 -4.809286898839137e-2c 0.0,-3.101160862354892e-2 1.4759535655058045e-2,-4.975124378109453e-2 3.0348258706467665e-2 -4.975124378109453e-2c 7.1310116086235505e-3,0.0 1.4262023217247101e-2,4.477611940298508e-3 1.907131011608624e-2 1.0945273631840795e-2c 6.965174129353235e-3,9.286898839137645e-3 1.0613598673300167e-2,2.1724709784411277e-2 1.0613598673300167e-2 3.731343283582089e-2c 0.0,3.681592039800995e-2 -1.8242122719734664e-2,4.958540630182421e-2 -3.0348258706467665e-2 4.958540630182421e-2Z" /></g></g></g><g><g><path d="M 5.5,-4.600000000000002 l -5.0e-2,-3.061616997868383e-18 " /><path d="M 5.5,-4.380000000000002 l -5.0e-2,-3.061616997868383e-18 " /><path d="M 5.5,-4.160000000000001 l -5.0e-2,-3.061616997868383e-18 " /><path d="M 5.5,-3.9400000000000013 l -5.0e-2,-3.061616997868383e-18 " /><path d="M 5.5,-3.720000000000001 l -5.0e-2,-3.061616997868383e-18 " /><path d="M 5.5,-3.500000000000001 l -5.0e-2,-3.061616997868383e-18 " /><path d="M 5.5,-3.2800000000000007 l -5.0e-2,-3.061616997868383e-18 " /><path d="M 5.5,-3.0600000000000005 l -5.0e-2,-3.061616997868383e-18 " /><path d="M 5.5,-2.8400000000000003 l -5.0e-2,-3.061616997868383e-18 " /><path d="M 5.5,-2.62 l -5.0e-2,-3.061616997868383e-18 " /><path d="M 5.5,-2.4 l -5.0e-2,-3.061616997868383e-18 " /><path d="M 5.5,-2.1799999999999997 l -5.0e-2,-3.061616997868383e-18 " /><path d="M 5.5,-1.9599999999999997 l -5.0e-2,-3.061616997868383e-18 " /><path d="M 5.5,-1.7399999999999998 l -5.0e-2,-3.061616997868383e-18 " /><path d="M 5.5,-1.5199999999999998 l -5.0e-2,-3.061616997868383e-18 " /><path d="M 5.5,-1.2999999999999998 l -5.0e-2,-3.061616997868383e-18 " /><path d="M 5.5,-1.0799999999999998 l -5.0e-2,-3.061616997868383e-18 " /><path d="M 5.5,-0.8599999999999999 l -5.0e-2,-3.061616997868383e-18 " /><path d="M 5.5,-0.6399999999999999 l -5.0e-2,-3.061616997868383e-18 " /><path d="M 5.5,-0.42 l -5.0e-2,-3.061616997868383e-18 " /><path d="M 5.5,-0.2 l -5.0e-2,-3.061616997868383e-18 " /><path d="M 5.5,-4.6000000000000005 l -0.1,-6.123233995736766e-18 " /><path d="M 5.5,-3.5 l -0.1,-6.123233995736766e-18 " /><path d="M 5.5,-2.4 l -0.1,-6.123233995736766e-18 " /><path d="M 5.5,-1.2999999999999998 l -0.1,-6.123233995736766e-18 " /><path d="M 5.5,-0.2 l -0.1,-6.123233995736766e-18 " /></g><path d="M 5.5,0.0 l 2.9391523179536476e-16,-4.8 " /></g></g><g><path d="M 0.0,-4.8 h 5.5 " /></g><g fill="rgb(0,0,0)" fill-opacity="1.0" stroke-width="0.0"><g fill="rgb(0,0,0)" fill-opacity="1.0"><g fill="rgb(0,0,0)" fill-opacity="1.0"><path d="M -0.42023217247097855,-4.5530679933665 ZM -0.3890547263681593,-4.63217247097844 c -3.1509121061359872e-3,0.0 -1.0447761194029853e-2,2.9850746268656717e-3 -1.4096185737976785e-2 4.643449419568822e-3l -1.9900497512437814e-3,-5.140961857379768e-3 c 1.459369817578773e-2,-6.7993366500829185e-3 2.0232172470978443e-2,-1.0281923714759536e-2 2.8524046434494202e-2 -1.6252072968490877e-2h 3.1509121061359872e-3 v 8.341625207296849e-2 c 0.0,5.970149253731343e-3 8.291873963515756e-4,7.6285240464344945e-3 6.3018242122719744e-3 7.6285240464344945e-3h 8.623548922056386e-3 c 4.975124378109454e-4,0.0 1.326699834162521e-3,3.316749585406302e-4 1.326699834162521e-3 1.3266998341625207e-3v 3.648424543946932e-3 l -2.2719734660033172e-2,-3.316749585406302e-4 l -2.30514096185738e-2,3.316749585406302e-4 v -3.648424543946932e-3 c 1.6583747927031512e-4,-4.975124378109452e-4 3.3167495854063023e-4,-1.3266998341625207e-3 1.326699834162521e-3 -1.3266998341625207e-3h 9.950248756218907e-3 c 6.3018242122719744e-3,0.0 6.3018242122719744e-3,-2.8192371475953566e-3 6.3018242122719744e-3 -7.6285240464344945e-3v -5.704809286898839e-2 c 0.0,-5.638474295190713e-3 0.0,-9.618573797678276e-3 -3.6484245439469326e-3 -9.618573797678276e-3ZM -0.34759535655058055,-4.5530679933665 ZM -0.3112769485903815,-4.64311774461028 c -7.1310116086235505e-3,0.0 -1.75787728026534e-2,6.965174129353234e-3 -1.75787728026534e-2 4.560530679933665e-2c 0.0,1.3598673300165837e-2 2.4875621890547268e-3,4.0961857379767826e-2 1.7081260364842456e-2 4.0961857379767826e-2c 2.819237147595357e-3,0.0 1.0779436152570482e-2,-1.824212271973466e-3 1.4262023217247101e-2 -1.4759535655058043e-2c 2.1558872305140965e-3,-7.960199004975124e-3 3.3167495854063023e-3,-1.791044776119403e-2 3.3167495854063023e-3 -3.233830845771144e-2c 0.0,-2.1061359867330015e-2 -5.306799336650084e-3,-3.283582089552239e-2 -1.0116086235489222e-2 -3.6981757877280266e-2c -1.8242122719734663e-3,-1.658374792703151e-3 -4.311774461028193e-3,-2.4875621890547263e-3 -6.965174129353235e-3 -2.4875621890547263e-3ZM -0.3112769485903815,-4.64311774461028 ZM -0.31194029850746274,-4.5510779436152555 c -1.7744610281923718e-2,0.0 -2.9684908789386406e-2,-2.271973466003317e-2 -2.9684908789386406e-2 -4.809286898839137e-2c 0.0,-3.101160862354892e-2 1.4759535655058045e-2,-4.975124378109453e-2 3.0348258706467665e-2 -4.975124378109453e-2c 7.1310116086235505e-3,0.0 1.4262023217247101e-2,4.477611940298508e-3 1.907131011608624e-2 1.0945273631840795e-2c 6.965174129353235e-3,9.286898839137645e-3 1.0613598673300167e-2,2.1724709784411277e-2 1.0613598673300167e-2 3.731343283582089e-2c 0.0,3.681592039800995e-2 -1.8242122719734664e-2,4.958540630182421e-2 -3.0348258706467665e-2 4.958540630182421e-2ZM -0.27495854063018255,-4.5530679933665 ZM -0.2386401326699835,-4.64311774461028 c -7.1310116086235505e-3,0.0 -1.75787728026534e-2,6.965174129353234e-3 -1.75787728026534e-2 4.560530679933665e-2c 0.0,1.3598673300165837e-2 2.4875621890547268e-3,4.0961857379767826e-2 1.7081260364842456e-2 4.0961857379767826e-2c 2.819237147595357e-3,0.0 1.0779436152570482e-2,-1.824212271973466e-3 1.4262023217247101e-2 -1.4759535655058043e-2c 2.1558872305140965e-3,-7.960199004975124e-3 3.3167495854063023e-3,-1.791044776119403e-2 3.3167495854063023e-3 -3.233830845771144e-2c 0.0,-2.1061359867330015e-2 -5.306799336650084e-3,-3.283582089552239e-2 -1.0116086235489222e-2 -3.6981757877280266e-2c -1.8242122719734663e-3,-1.658374792703151e-3 -4.311774461028193e-3,-2.4875621890547263e-3 -6.965174129353235e-3 -2.4875621890547263e-3ZM -0.2386401326699835,-4.64311774461028 ZM -0.23930348258706477,-4.5510779436152555 c -1.7744610281923718e-2,0.0 -2.9684908789386406e-2,-2.271973466003317e-2 -2.9684908789386406e-2 -4.809286898839137e-2c 0.0,-3.101160862354892e-2 1.4759535655058045e-2,-4.975124378109453e-2 3.0348258706467665e-2 -4.975124378109453e-2c 7.1310116086235505e-3,0.0 1.4262023217247101e-2,4.477611940298508e-3 1.907131011608624e-2 1.0945273631840795e-2c 6.965174129353235e-3,9.286898839137645e-3 1.0613598673300167e-2,2.1724709784411277e-2 1.0613598673300167e-2 3.731343283582089e-2c 0.0,3.681592039800995e-2 -1.8242122719734664e-2,4.958540630182421e-2 -3.0348258706467665e-2 4.958540630182421e-2ZM -0.2023217247097845,-4.5530679933665 ZM -0.19286898839137653,-4.559867330016583 c 0.0,-4.809286898839138e-3 3.980099502487563e-3,-8.789386401326699e-3 8.7893864013267e-3 -8.789386401326699e-3c 4.809286898839138e-3,0.0 8.7893864013267e-3,3.980099502487562e-3 8.7893864013267e-3 8.789386401326699e-3c 0.0,4.809286898839138e-3 -3.980099502487563e-3,8.789386401326699e-3 -8.7893864013267e-3 8.789386401326699e-3c -4.809286898839138e-3,0.0 -8.7893864013267e-3,-3.980099502487562e-3 -8.7893864013267e-3 -8.789386401326699e-3ZM -0.16600331674958546,-4.5530679933665 ZM -0.1296849087893865,-4.64311774461028 c -7.1310116086235505e-3,0.0 -1.75787728026534e-2,6.965174129353234e-3 -1.75787728026534e-2 4.560530679933665e-2c 0.0,1.3598673300165837e-2 2.4875621890547268e-3,4.0961857379767826e-2 1.7081260364842456e-2 4.0961857379767826e-2c 2.819237147595357e-3,0.0 1.0779436152570482e-2,-1.824212271973466e-3 1.4262023217247101e-2 -1.4759535655058043e-2c 2.1558872305140965e-3,-7.960199004975124e-3 3.3167495854063023e-3,-1.791044776119403e-2 3.3167495854063023e-3 -3.233830845771144e-2c 0.0,-2.1061359867330015e-2 -5.306799336650084e-3,-3.283582089552239e-2 -1.0116086235489222e-2 -3.6981757877280266e-2c -1.8242122719734663e-3,-1.658374792703151e-3 -4.311774461028193e-3,-2.4875621890547263e-3 -6.965174129353235e-3 -2.4875621890547263e-3ZM -0.1296849087893865,-4.64311774461028 ZM -0.1303482587064677,-4.5510779436152555 c -1.7744610281923718e-2,0.0 -2.9684908789386406e-2,-2.271973466003317e-2 -2.9684908789386406e-2 -4.809286898839137e-2c 0.0,-3.101160862354892e-2 1.4759535655058045e-2,-4.975124378109453e-2 3.0348258706467665e-2 -4.975124378109453e-2c 7.1310116086235505e-3,0.0 1.4262023217247101e-2,4.477611940298508e-3 1.907131011608624e-2 1.0945273631840795e-2c 6.965174129353235e-3,9.286898839137645e-3 1.0613598673300167e-2,2.1724709784411277e-2 1.0613598673300167e-2 3.731343283582089e-2c 0.0,3.681592039800995e-2 -1.8242122719734664e-2,4.958540630182421e-2 -3.0348258706467665e-2 4.958540630182421e-2Z" /></g></g></g><g fill="rgb(0,0,0)" fill-opacity="1.0" stroke-width="0.0"><g fill="rgb(0,0,0)" fill-opacity="1.0"><g fill="rgb(0,0,0)" fill-opacity="1.0"><path d="M -0.34759535655058044,-3.4530679933665 ZM -0.29635157545605306,-3.481094527363183 c 0.0,-1.7081260364842456e-2 -9.286898839137645e-3,-2.5538971807628524e-2 -1.956882255389718e-2 -2.5538971807628524e-2c -7.6285240464344945e-3,0.0 -1.3432835820895522e-2,1.1608623548922056e-3 -1.990049751243781e-2 3.8142620232172473e-3l 5.306799336650083e-3,-4.527363184079602e-2 c 5.4726368159203976e-3,4.975124378109452e-4 1.1111111111111112e-2,6.633499170812604e-4 1.691542288557214e-2 6.633499170812604e-4c 8.291873963515755e-3,0.0 1.691542288557214e-2,-4.975124378109452e-4 2.5870646766169153e-2 -1.4925373134328358e-3l 9.950248756218905e-4,4.975124378109452e-4 l -2.4875621890547263e-3,1.077943615257048e-2 c -6.467661691542288e-3,6.633499170812604e-4 -1.1774461028192372e-2,8.291873963515755e-4 -1.6417910447761194e-2 8.291873963515755e-4c -7.462686567164179e-3,0.0 -1.3101160862354893e-2,-6.633499170812604e-4 -1.890547263681592e-2 -1.3266998341625207e-3l -3.150912106135987e-3,2.6202321724709786e-2 c 3.482587064676617e-3,-1.3266998341625207e-3 9.45273631840796e-3,-2.4875621890547263e-3 1.5920398009950248e-2 -2.4875621890547263e-3c 1.7578772802653398e-2,0.0 2.736318407960199e-2,1.5257048092868989e-2 2.736318407960199e-2 3.0514096185737978e-2c 0.0,1.857379767827529e-2 -1.2935323383084577e-2,3.283582089552239e-2 -3.167495854063018e-2 3.283582089552239e-2c -9.45273631840796e-3,0.0 -2.321724709784411e-2,-5.306799336650083e-3 -2.321724709784411e-2 -1.1774461028192372e-2c 0.0,-3.150912106135987e-3 2.6533996683250414e-3,-5.306799336650083e-3 5.638474295190713e-3 -5.306799336650083e-3c 3.316749585406302e-3,0.0 5.4726368159203976e-3,2.4875621890547263e-3 7.462686567164179e-3 5.140961857379768e-3c 2.4875621890547263e-3,2.9850746268656717e-3 5.140961857379768e-3,6.301824212271974e-3 1.0447761194029851e-2 6.301824212271974e-3c 1.0613598673300166e-2,0.0 1.9402985074626865e-2,-9.950248756218905e-3 1.9402985074626865e-2 -2.437810945273632e-2ZM -0.27495854063018244,-3.4530679933665 ZM -0.2386401326699834,-3.543117744610281 c -7.131011608623549e-3,0.0 -1.7578772802653398e-2,6.965174129353234e-3 -1.7578772802653398e-2 4.560530679933665e-2c 0.0,1.3598673300165837e-2 2.4875621890547263e-3,4.0961857379767826e-2 1.7081260364842456e-2 4.0961857379767826e-2c 2.8192371475953566e-3,0.0 1.077943615257048e-2,-1.824212271973466e-3 1.4262023217247097e-2 -1.4759535655058043e-2c 2.155887230514096e-3,-7.960199004975124e-3 3.316749585406302e-3,-1.791044776119403e-2 3.316749585406302e-3 -3.233830845771144e-2c 0.0,-2.1061359867330015e-2 -5.306799336650083e-3,-3.283582089552239e-2 -1.011608623548922e-2 -3.6981757877280266e-2c -1.824212271973466e-3,-1.658374792703151e-3 -4.311774461028192e-3,-2.4875621890547263e-3 -6.965174129353234e-3 -2.4875621890547263e-3ZM -0.2386401326699834,-3.543117744610281 ZM -0.2393034825870647,-3.4510779436152563 c -1.7744610281923714e-2,0.0 -2.96849087893864e-2,-2.271973466003317e-2 -2.96849087893864e-2 -4.809286898839137e-2c 0.0,-3.101160862354892e-2 1.4759535655058043e-2,-4.975124378109453e-2 3.034825870646766e-2 -4.975124378109453e-2c 7.131011608623549e-3,0.0 1.4262023217247097e-2,4.477611940298508e-3 1.9071310116086235e-2 1.0945273631840795e-2c 6.965174129353234e-3,9.286898839137645e-3 1.0613598673300166e-2,2.1724709784411277e-2 1.0613598673300166e-2 3.731343283582089e-2c 0.0,3.681592039800995e-2 -1.824212271973466e-2,4.958540630182421e-2 -3.034825870646766e-2 4.958540630182421e-2ZM -0.2023217247097844,-3.4530679933665 ZM -0.19286898839137645,-3.459867330016583 c 0.0,-4.809286898839138e-3 3.980099502487562e-3,-8.789386401326699e-3 8.789386401326699e-3 -8.789386401326699e-3c 4.809286898839138e-3,0.0 8.789386401326699e-3,3.980099502487562e-3 8.789386401326699e-3 8.789386401326699e-3c 0.0,4.809286898839138e-3 -3.980099502487562e-3,8.789386401326699e-3 -8.789386401326699e-3 8.789386401326699e-3c -4.809286898839138e-3,0.0 -8.789386401326699e-3,-3.980099502487562e-3 -8.789386401326699e-3 -8.789386401326699e-3ZM -0.1660033167495854,-3.4530679933665 ZM -0.1296849087893864,-3.543117744610281 c -7.131011608623549e-3,0.0 -1.7578772802653398e-2,6.965174129353234e-3 -1.7578772802653398e-2 4.560530679933665e-2c 0.0,1.3598673300165837e-2 2.4875621890547263e-3,4.0961857379767826e-2 1.7081260364842456e-2 4.0961857379767826e-2c 2.8192371475953566e-3,0.0 1.077943615257048e-2,-1.824212271973466e-3 1.4262023217247097e-2 -1.4759535655058043e-2c 2.155887230514096e-3,-7.960199004975124e-3 3.316749585406302e-3,-1.791044776119403e-2 3.316749585406302e-3 -3.233830845771144e-2c 0.0,-2.1061359867330015e-2 -5.306799336650083e-3,-3.283582089552239e-2 -1.011608623548922e-2 -3.6981757877280266e-2c -1.824212271973466e-3,-1.658374792703151e-3 -4.311774461028192e-3,-2.4875621890547263e-3 -6.965174129353234e-3 -2.4875621890547263e-3ZM -0.1296849087893864,-3.543117744610281 ZM -0.13034825870646766,-3.4510779436152563 c -1.7744610281923714e-2,0.0 -2.96849087893864e-2,-2.271973466003317e-2 -2.96849087893864e-2 -4.809286898839137e-2c 0.0,-3.101160862354892e-2 1.4759535655058043e-2,-4.975124378109453e-2 3.034825870646766e-2 -4.975124378109453e-2c 7.131011608623549e-3,0.0 1.4262023217247097e-2,4.477611940298508e-3 1.9071310116086235e-2 1.0945273631840795e-2c 6.965174129353234e-3,9.286898839137645e-3 1.0613598673300166e-2,2.1724709784411277e-2 1.0613598673300166e-2 3.731343283582089e-2c 0.0,3.681592039800995e-2 -1.824212271973466e-2,4.958540630182421e-2 -3.034825870646766e-2 4.958540630182421e-2Z" /></g></g></g><g fill="rgb(0,0,0)" fill-opacity="1.0" stroke-width="0.0"><g fill="rgb(0,0,0)" fill-opacity="1.0"><g fill="rgb(0,0,0)" fill-opacity="1.0"><path d="M -0.27495854063018244,-2.3530679933665004 ZM -0.2386401326699834,-2.4431177446102814 c -7.131011608623549e-3,0.0 -1.7578772802653398e-2,6.965174129353234e-3 -1.7578772802653398e-2 4.560530679933665e-2c 0.0,1.3598673300165837e-2 2.4875621890547263e-3,4.0961857379767826e-2 1.7081260364842456e-2 4.0961857379767826e-2c 2.8192371475953566e-3,0.0 1.077943615257048e-2,-1.824212271973466e-3 1.4262023217247097e-2 -1.4759535655058043e-2c 2.155887230514096e-3,-7.960199004975124e-3 3.316749585406302e-3,-1.791044776119403e-2 3.316749585406302e-3 -3.233830845771144e-2c 0.0,-2.1061359867330015e-2 -5.306799336650083e-3,-3.283582089552239e-2 -1.011608623548922e-2 -3.6981757877280266e-2c -1.824212271973466e-3,-1.658374792703151e-3 -4.311774461028192e-3,-2.4875621890547263e-3 -6.965174129353234e-3 -2.4875621890547263e-3ZM -0.2386401326699834,-2.4431177446102814 ZM -0.23930348258706466,-2.3510779436152567 c -1.7744610281923714e-2,0.0 -2.96849087893864e-2,-2.271973466003317e-2 -2.96849087893864e-2 -4.809286898839137e-2c 0.0,-3.101160862354892e-2 1.4759535655058043e-2,-4.975124378109453e-2 3.034825870646766e-2 -4.975124378109453e-2c 7.131011608623549e-3,0.0 1.4262023217247097e-2,4.477611940298508e-3 1.9071310116086235e-2 1.0945273631840795e-2c 6.965174129353234e-3,9.286898839137645e-3 1.0613598673300166e-2,2.1724709784411277e-2 1.0613598673300166e-2 3.731343283582089e-2c 0.0,3.681592039800995e-2 -1.824212271973466e-2,4.958540630182421e-2 -3.034825870646766e-2 4.958540630182421e-2ZM -0.20232172470978438,-2.3530679933665004 ZM -0.19286898839137645,-2.3598673300165833 c 0.0,-4.809286898839138e-3 3.980099502487562e-3,-8.789386401326699e-3 8.789386401326699e-3 -8.789386401326699e-3c 4.809286898839138e-3,0.0 8.789386401326699e-3,3.980099502487562e-3 8.789386401326699e-3 8.789386401326699e-3c 0.0,4.809286898839138e-3 -3.980099502487562e-3,8.789386401326699e-3 -8.789386401326699e-3 8.789386401326699e-3c -4.809286898839138e-3,0.0 -8.789386401326699e-3,-3.980099502487562e-3 -8.789386401326699e-3 -8.789386401326699e-3ZM -0.1660033167495854,-2.3530679933665004 ZM -0.12968490878938638,-2.4431177446102814 c -7.131011608623549e-3,0.0 -1.7578772802653398e-2,6.965174129353234e-3 -1.7578772802653398e-2 4.560530679933665e-2c 0.0,1.3598673300165837e-2 2.4875621890547263e-3,4.0961857379767826e-2 1.7081260364842456e-2 4.0961857379767826e-2c 2.8192371475953566e-3,0.0 1.077943615257048e-2,-1.824212271973466e-3 1.4262023217247097e-2 -1.4759535655058043e-2c 2.155887230514096e-3,-7.960199004975124e-3 3.316749585406302e-3,-1.791044776119403e-2 3.316749585406302e-3 -3.233830845771144e-2c 0.0,-2.1061359867330015e-2 -5.306799336650083e-3,-3.283582089552239e-2 -1.011608623548922e-2 -3.6981757877280266e-2c -1.824212271973466e-3,-1.658374792703151e-3 -4.311774461028192e-3,-2.4875621890547263e-3 -6.965174129353234e-3 -2.4875621890547263e-3ZM -0.12968490878938638,-2.4431177446102814 ZM -0.13034825870646766,-2.3510779436152567 c -1.7744610281923714e-2,0.0 -2.96849087893864e-2,-2.271973466003317e-2 -2.96849087893864e-2 -4.809286898839137e-2c 0.0,-3.101160862354892e-2 1.4759535655058043e-2,-4.975124378109453e-2 3.034825870646766e-2 -4.975124378109453e-2c 7.131011608623549e-3,0.0 1.4262023217247097e-2,4.477611940298508e-3 1.9071310116086235e-2 1.0945273631840795e-2c 6.965174129353234e-3,9.286898839137645e-3 1.0613598673300166e-2,2.1724709784411277e-2 1.0613598673300166e-2 3.731343283582089e-2c 0.0,3.681592039800995e-2 -1.824212271973466e-2,4.958540630182421e-2 -3.034825870646766e-2 4.958540630182421e-2Z" /></g></g></g><g fill="rgb(0,0,0)" fill-opacity="1.0" stroke-width="0.0"><g fill="rgb(0,0,0)" fill-opacity="1.0"><g fill="rgb(0,0,0)" fill-opacity="1.0"><path d="M -0.4028192371475954,-1.2530679933665008 ZM -0.35737976782752906,-1.292205638474295 h -3.747927031509121e-2 c -1.4925373134328358e-3,0.0 -2.4875621890547263e-3,-1.3266998341625207e-3 -2.4875621890547263e-3 -2.8192371475953566e-3c 0.0,-2.6533996683250414e-3 2.155887230514096e-3,-6.135986733001658e-3 4.1459369817578775e-3 -6.135986733001658e-3h 3.797678275290216e-2 c 1.658374792703151e-3,0.0 2.321724709784411e-3,1.4925373134328358e-3 2.321724709784411e-3 2.9850746268656717e-3c 0.0,1.824212271973466e-3 -2.321724709784411e-3,5.970149253731343e-3 -4.477611940298508e-3 5.970149253731343e-3ZM -0.3475953565505805,-1.2530679933665008 ZM -0.2963515754560531,-1.281094527363184 c 0.0,-1.7081260364842456e-2 -9.286898839137645e-3,-2.5538971807628524e-2 -1.956882255389718e-2 -2.5538971807628524e-2c -7.6285240464344945e-3,0.0 -1.3432835820895522e-2,1.1608623548922056e-3 -1.990049751243781e-2 3.8142620232172473e-3l 5.306799336650083e-3,-4.527363184079602e-2 c 5.4726368159203976e-3,4.975124378109452e-4 1.1111111111111112e-2,6.633499170812604e-4 1.691542288557214e-2 6.633499170812604e-4c 8.291873963515755e-3,0.0 1.691542288557214e-2,-4.975124378109452e-4 2.5870646766169153e-2 -1.4925373134328358e-3l 9.950248756218905e-4,4.975124378109452e-4 l -2.4875621890547263e-3,1.077943615257048e-2 c -6.467661691542288e-3,6.633499170812604e-4 -1.1774461028192372e-2,8.291873963515755e-4 -1.6417910447761194e-2 8.291873963515755e-4c -7.462686567164179e-3,0.0 -1.3101160862354893e-2,-6.633499170812604e-4 -1.890547263681592e-2 -1.3266998341625207e-3l -3.150912106135987e-3,2.6202321724709786e-2 c 3.482587064676617e-3,-1.3266998341625207e-3 9.45273631840796e-3,-2.4875621890547263e-3 1.5920398009950248e-2 -2.4875621890547263e-3c 1.7578772802653398e-2,0.0 2.736318407960199e-2,1.5257048092868989e-2 2.736318407960199e-2 3.0514096185737978e-2c 0.0,1.857379767827529e-2 -1.2935323383084577e-2,3.283582089552239e-2 -3.167495854063018e-2 3.283582089552239e-2c -9.45273631840796e-3,0.0 -2.321724709784411e-2,-5.306799336650083e-3 -2.321724709784411e-2 -1.1774461028192372e-2c 0.0,-3.150912106135987e-3 2.6533996683250414e-3,-5.306799336650083e-3 5.638474295190713e-3 -5.306799336650083e-3c 3.316749585406302e-3,0.0 5.4726368159203976e-3,2.4875621890547263e-3 7.462686567164179e-3 5.140961857379768e-3c 2.4875621890547263e-3,2.9850746268656717e-3 5.140961857379768e-3,6.301824212271974e-3 1.0447761194029851e-2 6.301824212271974e-3c 1.0613598673300166e-2,0.0 1.9402985074626865e-2,-9.950248756218905e-3 1.9402985074626865e-2 -2.437810945273632e-2ZM -0.27495854063018244,-1.2530679933665008 ZM -0.23864013266998346,-1.3431177446102818 c -7.131011608623549e-3,0.0 -1.7578772802653398e-2,6.965174129353234e-3 -1.7578772802653398e-2 4.560530679933665e-2c 0.0,1.3598673300165837e-2 2.4875621890547263e-3,4.0961857379767826e-2 1.7081260364842456e-2 4.0961857379767826e-2c 2.8192371475953566e-3,0.0 1.077943615257048e-2,-1.824212271973466e-3 1.4262023217247097e-2 -1.4759535655058043e-2c 2.155887230514096e-3,-7.960199004975124e-3 3.316749585406302e-3,-1.791044776119403e-2 3.316749585406302e-3 -3.233830845771144e-2c 0.0,-2.1061359867330015e-2 -5.306799336650083e-3,-3.283582089552239e-2 -1.011608623548922e-2 -3.6981757877280266e-2c -1.824212271973466e-3,-1.658374792703151e-3 -4.311774461028192e-3,-2.4875621890547263e-3 -6.965174129353234e-3 -2.4875621890547263e-3ZM -0.23864013266998346,-1.3431177446102818 ZM -0.23930348258706471,-1.2510779436152568 c -1.7744610281923714e-2,0.0 -2.96849087893864e-2,-2.271973466003317e-2 -2.96849087893864e-2 -4.809286898839137e-2c 0.0,-3.101160862354892e-2 1.4759535655058043e-2,-4.975124378109453e-2 3.034825870646766e-2 -4.975124378109453e-2c 7.131011608623549e-3,0.0 1.4262023217247097e-2,4.477611940298508e-3 1.9071310116086235e-2 1.0945273631840795e-2c 6.965174129353234e-3,9.286898839137645e-3 1.0613598673300166e-2,2.1724709784411277e-2 1.0613598673300166e-2 3.731343283582089e-2c 0.0,3.681592039800995e-2 -1.824212271973466e-2,4.958540630182421e-2 -3.034825870646766e-2 4.958540630182421e-2ZM -0.20232172470978446,-1.2530679933665008 ZM -0.1928689883913765,-1.2598673300165837 c 0.0,-4.809286898839138e-3 3.980099502487562e-3,-8.789386401326699e-3 8.789386401326699e-3 -8.789386401326699e-3c 4.809286898839138e-3,0.0 8.789386401326699e-3,3.980099502487562e-3 8.789386401326699e-3 8.789386401326699e-3c 0.0,4.809286898839138e-3 -3.980099502487562e-3,8.789386401326699e-3 -8.789386401326699e-3 8.789386401326699e-3c -4.809286898839138e-3,0.0 -8.789386401326699e-3,-3.980099502487562e-3 -8.789386401326699e-3 -8.789386401326699e-3ZM -0.16600331674958546,-1.2530679933665008 ZM -0.12968490878938646,-1.3431177446102818 c -7.131011608623549e-3,0.0 -1.7578772802653398e-2,6.965174129353234e-3 -1.7578772802653398e-2 4.560530679933665e-2c 0.0,1.3598673300165837e-2 2.4875621890547263e-3,4.0961857379767826e-2 1.7081260364842456e-2 4.0961857379767826e-2c 2.8192371475953566e-3,0.0 1.077943615257048e-2,-1.824212271973466e-3 1.4262023217247097e-2 -1.4759535655058043e-2c 2.155887230514096e-3,-7.960199004975124e-3 3.316749585406302e-3,-1.791044776119403e-2 3.316749585406302e-3 -3.233830845771144e-2c 0.0,-2.1061359867330015e-2 -5.306799336650083e-3,-3.283582089552239e-2 -1.011608623548922e-2 -3.6981757877280266e-2c -1.824212271973466e-3,-1.658374792703151e-3 -4.311774461028192e-3,-2.4875621890547263e-3 -6.965174129353234e-3 -2.4875621890547263e-3ZM -0.12968490878938646,-1.3431177446102818 ZM -0.13034825870646768,-1.2510779436152568 c -1.7744610281923714e-2,0.0 -2.96849087893864e-2,-2.271973466003317e-2 -2.96849087893864e-2 -4.809286898839137e-2c 0.0,-3.101160862354892e-2 1.4759535655058043e-2,-4.975124378109453e-2 3.034825870646766e-2 -4.975124378109453e-2c 7.131011608623549e-3,0.0 1.4262023217247097e-2,4.477611940298508e-3 1.9071310116086235e-2 1.0945273631840795e-2c 6.965174129353234e-3,9.286898839137645e-3 1.0613598673300166e-2,2.1724709784411277e-2 1.0613598673300166e-2 3.731343283582089e-2c 0.0,3.681592039800995e-2 -1.824212271973466e-2,4.958540630182421e-2 -3.034825870646766e-2 4.958540630182421e-2Z" /></g></g></g><g fill="rgb(0,0,0)" fill-opacity="1.0" stroke-width="0.0"><g fill="rgb(0,0,0)" fill-opacity="1.0"><g fill="rgb(0,0,0)" fill-opacity="1.0"><path d="M -0.4754560530679933,-0.15306799336650084 ZM -0.430016583747927,-0.1922056384742952 h -3.747927031509121e-2 c -1.4925373134328358e-3,0.0 -2.4875621890547263e-3,-1.3266998341625207e-3 -2.4875621890547263e-3 -2.8192371475953566e-3c 0.0,-2.6533996683250414e-3 2.155887230514096e-3,-6.135986733001658e-3 4.1459369817578775e-3 -6.135986733001658e-3h 3.797678275290216e-2 c 1.658374792703151e-3,0.0 2.321724709784411e-3,1.4925373134328358e-3 2.321724709784411e-3 2.9850746268656717e-3c 0.0,1.824212271973466e-3 -2.321724709784411e-3,5.970149253731343e-3 -4.477611940298508e-3 5.970149253731343e-3ZM -0.42023217247097844,-0.15306799336650084 ZM -0.3890547263681592,-0.23217247097844113 c -3.150912106135987e-3,0.0 -1.0447761194029851e-2,2.9850746268656717e-3 -1.4096185737976783e-2 4.643449419568822e-3l -1.990049751243781e-3,-5.140961857379768e-3 c 1.4593698175787729e-2,-6.7993366500829185e-3 2.023217247097844e-2,-1.0281923714759536e-2 2.8524046434494195e-2 -1.6252072968490877e-2h 3.150912106135987e-3 v 8.341625207296849e-2 c 0.0,5.970149253731343e-3 8.291873963515755e-4,7.6285240464344945e-3 6.301824212271974e-3 7.6285240464344945e-3h 8.623548922056384e-3 c 4.975124378109452e-4,0.0 1.3266998341625207e-3,3.316749585406302e-4 1.3266998341625207e-3 1.3266998341625207e-3v 3.648424543946932e-3 l -2.271973466003317e-2,-3.316749585406302e-4 l -2.3051409618573798e-2,3.316749585406302e-4 v -3.648424543946932e-3 c 1.658374792703151e-4,-4.975124378109452e-4 3.316749585406302e-4,-1.3266998341625207e-3 1.3266998341625207e-3 -1.3266998341625207e-3h 9.950248756218905e-3 c 6.301824212271974e-3,0.0 6.301824212271974e-3,-2.8192371475953566e-3 6.301824212271974e-3 -7.6285240464344945e-3v -5.704809286898839e-2 c 0.0,-5.638474295190713e-3 0.0,-9.618573797678276e-3 -3.648424543946932e-3 -9.618573797678276e-3ZM -0.3475953565505804,-0.15306799336650084 ZM -0.3112769485903814,-0.24311774461028193 c -7.131011608623549e-3,0.0 -1.7578772802653398e-2,6.965174129353234e-3 -1.7578772802653398e-2 4.560530679933665e-2c 0.0,1.3598673300165837e-2 2.4875621890547263e-3,4.0961857379767826e-2 1.7081260364842456e-2 4.0961857379767826e-2c 2.8192371475953566e-3,0.0 1.077943615257048e-2,-1.824212271973466e-3 1.4262023217247097e-2 -1.4759535655058043e-2c 2.155887230514096e-3,-7.960199004975124e-3 3.316749585406302e-3,-1.791044776119403e-2 3.316749585406302e-3 -3.233830845771144e-2c 0.0,-2.1061359867330015e-2 -5.306799336650083e-3,-3.283582089552239e-2 -1.011608623548922e-2 -3.6981757877280266e-2c -1.824212271973466e-3,-1.658374792703151e-3 -4.311774461028192e-3,-2.4875621890547263e-3 -6.965174129353234e-3 -2.4875621890547263e-3ZM -0.3112769485903814,-0.24311774461028193 ZM -0.31194029850746263,-0.15107794361525706 c -1.7744610281923714e-2,0.0 -2.96849087893864e-2,-2.271973466003317e-2 -2.96849087893864e-2 -4.809286898839137e-2c 0.0,-3.101160862354892e-2 1.4759535655058043e-2,-4.975124378109453e-2 3.034825870646766e-2 -4.975124378109453e-2c 7.131011608623549e-3,0.0 1.4262023217247097e-2,4.477611940298508e-3 1.9071310116086235e-2 1.0945273631840795e-2c 6.965174129353234e-3,9.286898839137645e-3 1.0613598673300166e-2,2.1724709784411277e-2 1.0613598673300166e-2 3.731343283582089e-2c 0.0,3.681592039800995e-2 -1.824212271973466e-2,4.958540630182421e-2 -3.034825870646766e-2 4.958540630182421e-2ZM -0.27495854063018244,-0.15306799336650084 ZM -0.2386401326699834,-0.24311774461028193 c -7.131011608623549e-3,0.0 -1.7578772802653398e-2,6.965174129353234e-3 -1.7578772802653398e-2 4.560530679933665e-2c 0.0,1.3598673300165837e-2 2.4875621890547263e-3,4.0961857379767826e-2 1.7081260364842456e-2 4.0961857379767826e-2c 2.8192371475953566e-3,0.0 1.077943615257048e-2,-1.824212271973466e-3 1.4262023217247097e-2 -1.4759535655058043e-2c 2.155887230514096e-3,-7.960199004975124e-3 3.316749585406302e-3,-1.791044776119403e-2 3.316749585406302e-3 -3.233830845771144e-2c 0.0,-2.1061359867330015e-2 -5.306799336650083e-3,-3.283582089552239e-2 -1.011608623548922e-2 -3.6981757877280266e-2c -1.824212271973466e-3,-1.658374792703151e-3 -4.311774461028192e-3,-2.4875621890547263e-3 -6.965174129353234e-3 -2.4875621890547263e-3ZM -0.2386401326699834,-0.24311774461028193 ZM -0.23930348258706466,-0.15107794361525706 c -1.7744610281923714e-2,0.0 -2.96849087893864e-2,-2.271973466003317e-2 -2.96849087893864e-2 -4.809286898839137e-2c 0.0,-3.101160862354892e-2 1.4759535655058043e-2,-4.975124378109453e-2 3.034825870646766e-2 -4.975124378109453e-2c 7.131011608623549e-3,0.0 1.4262023217247097e-2,4.477611940298508e-3 1.9071310116086235e-2 1.0945273631840795e-2c 6.965174129353234e-3,9.286898839137645e-3 1.0613598673300166e-2,2.1724709784411277e-2 1.0613598673300166e-2 3.731343283582089e-2c 0.0,3.681592039800995e-2 -1.824212271973466e-2,4.958540630182421e-2 -3.034825870646766e-2 4.958540630182421e-2ZM -0.2023217247097844,-0.15306799336650084 ZM -0.19286898839137642,-0.15986733001658376 c 0.0,-4.809286898839138e-3 3.980099502487562e-3,-8.789386401326699e-3 8.789386401326699e-3 -8.789386401326699e-3c 4.809286898839138e-3,0.0 8.789386401326699e-3,3.980099502487562e-3 8.789386401326699e-3 8.789386401326699e-3c 0.0,4.809286898839138e-3 -3.980099502487562e-3,8.789386401326699e-3 -8.789386401326699e-3 8.789386401326699e-3c -4.809286898839138e-3,0.0 -8.789386401326699e-3,-3.980099502487562e-3 -8.789386401326699e-3 -8.789386401326699e-3ZM -0.16600331674958538,-0.15306799336650084 ZM -0.1296849087893864,-0.24311774461028193 c -7.131011608623549e-3,0.0 -1.7578772802653398e-2,6.965174129353234e-3 -1.7578772802653398e-2 4.560530679933665e-2c 0.0,1.3598673300165837e-2 2.4875621890547263e-3,4.0961857379767826e-2 1.7081260364842456e-2 4.0961857379767826e-2c 2.8192371475953566e-3,0.0 1.077943615257048e-2,-1.824212271973466e-3 1.4262023217247097e-2 -1.4759535655058043e-2c 2.155887230514096e-3,-7.960199004975124e-3 3.316749585406302e-3,-1.791044776119403e-2 3.316749585406302e-3 -3.233830845771144e-2c 0.0,-2.1061359867330015e-2 -5.306799336650083e-3,-3.283582089552239e-2 -1.011608623548922e-2 -3.6981757877280266e-2c -1.824212271973466e-3,-1.658374792703151e-3 -4.311774461028192e-3,-2.4875621890547263e-3 -6.965174129353234e-3 -2.4875621890547263e-3ZM -0.1296849087893864,-0.24311774461028193 ZM -0.13034825870646763,-0.15107794361525706 c -1.7744610281923714e-2,0.0 -2.96849087893864e-2,-2.271973466003317e-2 -2.96849087893864e-2 -4.809286898839137e-2c 0.0,-3.101160862354892e-2 1.4759535655058043e-2,-4.975124378109453e-2 3.034825870646766e-2 -4.975124378109453e-2c 7.131011608623549e-3,0.0 1.4262023217247097e-2,4.477611940298508e-3 1.9071310116086235e-2 1.0945273631840795e-2c 6.965174129353234e-3,9.286898839137645e-3 1.0613598673300166e-2,2.1724709784411277e-2 1.0613598673300166e-2 3.731343283582089e-2c 0.0,3.681592039800995e-2 -1.824212271973466e-2,4.958540630182421e-2 -3.034825870646766e-2 4.958540630182421e-2Z" /></g></g></g><g><g><path d="M -2.816687638038914e-16,-4.600000000000002 l 5.0e-2,-3.061616997868383e-18 " /><path d="M -2.6819764901327047e-16,-4.380000000000002 l 5.0e-2,-3.061616997868383e-18 " /><path d="M -2.547265342226496e-16,-4.160000000000001 l 5.0e-2,-3.061616997868383e-18 " /><path d="M -2.4125541943202866e-16,-3.9400000000000013 l 5.0e-2,-3.061616997868383e-18 " /><path d="M -2.277843046414078e-16,-3.720000000000001 l 5.0e-2,-3.061616997868383e-18 " /><path d="M -2.1431318985078685e-16,-3.500000000000001 l 5.0e-2,-3.061616997868383e-18 " /><path d="M -2.0084207506016595e-16,-3.2800000000000007 l 5.0e-2,-3.061616997868383e-18 " /><path d="M -1.8737096026954507e-16,-3.0600000000000005 l 5.0e-2,-3.061616997868383e-18 " /><path d="M -1.7389984547892416e-16,-2.8400000000000003 l 5.0e-2,-3.061616997868383e-18 " /><path d="M -1.6042873068830326e-16,-2.62 l 5.0e-2,-3.061616997868383e-18 " /><path d="M -1.4695761589768236e-16,-2.4 l 5.0e-2,-3.061616997868383e-18 " /><path d="M -1.3348650110706148e-16,-2.1799999999999997 l 5.0e-2,-3.061616997868383e-18 " /><path d="M -1.200153863164406e-16,-1.9599999999999997 l 5.0e-2,-3.061616997868383e-18 " /><path d="M -1.0654427152581971e-16,-1.7399999999999998 l 5.0e-2,-3.061616997868383e-18 " /><path d="M -9.307315673519883e-17,-1.5199999999999998 l 5.0e-2,-3.061616997868383e-18 " /><path d="M -7.960204194457794e-17,-1.2999999999999998 l 5.0e-2,-3.061616997868383e-18 " /><path d="M -6.613092715395706e-17,-1.0799999999999998 l 5.0e-2,-3.061616997868383e-18 " /><path d="M -5.265981236333618e-17,-0.8599999999999999 l 5.0e-2,-3.061616997868383e-18 " /><path d="M -3.91886975727153e-17,-0.6399999999999999 l 5.0e-2,-3.061616997868383e-18 " /><path d="M -2.5717582782094416e-17,-0.42 l 5.0e-2,-3.061616997868383e-18 " /><path d="M -1.2246467991473533e-17,-0.2 l 5.0e-2,-3.061616997868383e-18 " /><path d="M -2.816687638038913e-16,-4.6000000000000005 l 0.1,-6.123233995736766e-18 " /><path d="M -2.143131898507868e-16,-3.5 l 0.1,-6.123233995736766e-18 " /><path d="M -1.4695761589768236e-16,-2.4 l 0.1,-6.123233995736766e-18 " /><path d="M -7.960204194457794e-17,-1.2999999999999998 l 0.1,-6.123233995736766e-18 " /><path d="M -1.2246467991473533e-17,-0.2 l 0.1,-6.123233995736766e-18 " /></g><path d="M 0.0,0.0 l -2.9391523179536476e-16,-4.8 " /></g></g></g></g></g></svg>