<?xml version="1.0" encoding="UTF-8"?>
<!DOCTYPE svg PUBLIC "-//W3C//DTD SVG 1.1//EN"
    "http://www.w3.org/Graphics/SVG/1.1/DTD/svg11.dtd">
<svg xmlns="http://www.w3.org/2000/svg" xmlns:xlink="http://www.w3.org/1999/xlink" version="1.1" width="480.0" height="480.0" font-size="1" viewBox="0 0 480 480"><g><g fill="rgb(0,0,0)" fill-opacity="0.0"><g stroke="rgb(0,0,0)" stroke-opacity="1.0" stroke-width="1.0e-2" stroke-linecap="butt" stroke-linejoin="miter" font-size="1.0em" stroke-miterlimit="10.0"><g transform="matrix(80.4022333953721,0.0,0.0,80.4022333953721,37.78771632545349,426.9785271813106)"><g stroke-width="0.0"><path d="M 5.5,0.0 l -6.106226635438361e-16,-4.8 h -5.5 l -6.106226635438361e-16,4.8 Z" /></g><g><path d="M 2.518737454771983,-1.3089383888981596 c 0.0,-3.8659932488155545e-2 -3.1340067511844455e-2,-7.0e-2 -6.999999999999999e-2 -7.0e-2c -3.8659932488155545e-2,-2.3672381288436228e-18 -7.0e-2,3.134006751184445e-2 -7.0e-2 6.999999999999998e-2c -4.7344762576872455e-18,3.8659932488155545e-2 3.134006751184445e-2,7.0e-2 6.999999999999998e-2 7.0e-2c 3.8659932488155545e-2,7.101714386530868e-18 7.0e-2,-3.134006751184444e-2 7.000000000000003e-2 -6.999999999999998e-2Z" /></g><g><path d="M 1.6889470907552004,-3.8893899987698686 c 0.0,-3.8659932488155545e-2 -3.1340067511844455e-2,-7.0e-2 -6.999999999999999e-2 -7.0e-2c -3.8659932488155545e-2,-2.3672381288436228e-18 -7.0e-2,3.134006751184445e-2 -7.0e-2 6.999999999999998e-2c -4.7344762576872455e-18,3.8659932488155545e-2 3.134006751184445e-2,7.0e-2 6.999999999999998e-2 7.0e-2c 3.8659932488155545e-2,7.101714386530868e-18 7.0e-2,-3.134006751184444e-2 7.000000000000003e-2 -6.999999999999998e-2Z" /></g><g><path d="M 1.7914628617061257,-0.9928202468639211 c 0.0,-3.8659932488155545e-2 -3.1340067511844455e-2,-7.0e-2 -6.999999999999999e-2 -7.0e-2c -3.8659932488155545e-2,-2.3672381288436228e-18 -7.0e-2,3.134006751184445e-2 -7.0e-2 6.999999999999998e-2c -4.7344762576872455e-18,3.8659932488155545e-2 3.134006751184445e-2,7.0e-2 6.999999999999998e-2 7.0e-2c 3.8659932488155545e-2,7.101714386530868e-18 7.0e-2,-3.134006751184444e-2 7.000000000000003e-2 -6.999999999999998e-2Z" /></g><g><path d="M 0.42813337362048637,-3.766856654201729 c 0.0,-3.8659932488155545e-2 -3.1340067511844455e-2,-7.0e-2 -6.999999999999999e-2 -7.0e-2c -3.8659932488155545e-2,-2.3672381288436228e-18 -7.0e-2,3.134006751184445e-2 -7.0e-2 6.999999999999998e-2c -4.7344762576872455e-18,3.8659932488155545e-2 3.134006751184445e-2,7.0e-2 6.999999999999998e-2 7.0e-2c 3.8659932488155545e-2,7.101714386530868e-18 7.0e-2,-3.134006751184444e-2 7.000000000000003e-2 -6.999999999999998e-2Z" /></g><g><path d="M 4.469504146965077,-3.209430879871604 c 0.0,-3.8659932488155545e-2 -3.1340067511844455e-2,-7.0e-2 -6.999999999999999e-2 -7.0e-2c -3.8659932488155545e-2,-2.3672381288436228e-18 -7.0e-2,3.134006751184445e-2 -7.0e-2 6.999999999999998e-2c -4.7344762576872455e-18,3.8659932488155545e-2 3.134006751184445e-2,7.0e-2 6.999999999999998e-2 7.0e-2c 3.8659932488155545e-2,7.101714386530868e-18 7.0e-2,-3.134006751184444e-2 7.000000000000003e-2 -6.999999999999998e-2Z" /></g><g><path d="M 0.6767789413346834,-4.214006755231364 c 0.0,-3.8659932488155545e-2 -3.1340067511844455e-2,-7.0e-2 -6.999999999999999e-2 -7.0e-2c -3.8659932488155545e-2,-2.3672381288436228e-18 -7.0e-2,3.134006751184445e-2 -7.0e-2 6.999999999999998e-2c -4.7344762576872455e-18,3.8659932488155545e-2 3.134006751184445e-2,7.0e-2 6.999999999999998e-2 7.0e-2c 3.8659932488155545e-2,7.101714386530868e-18 7.0e-2,-3.134006751184444e-2 7.000000000000003e-2 -6.999999999999998e-2Z" /></g><g><path d="M 5.000395714535653,-0.31746784965562336 c 0.0,-3.8659932488155545e-2 -3.1340067511844455e-2,-7.0e-2 -6.999999999999999e-2 -7.0e-2c -3.8659932488155545e-2,-2.3672381288436228e-18 -7.0e-2,3.134006751184445e-2 -7.0e-2 6.999999999999998e-2c -4.7344762576872455e-18,3.8659932488155545e-2 3.134006751184445e-2,7.0e-2 6.999999999999998e-2 7.0e-2c 3.8659932488155545e-2,7.101714386530868e-18 7.0e-2,-3.134006751184444e-2 7.000000000000003e-2 -6.999999999999998e-2Z" /></g><g><path d="M 1.2780761441148916,-0.31152269643961067 c 0.0,-3.8659932488155545e-2 -3.1340067511844455e-2,-7.0e-2 -6.999999999999999e-2 -7.0e-2c -3.8659932488155545e-2,-2.3672381288436228e-18 -7.0e-2,3.134006751184445e-2 -7.0e-2 6.999999999999998e-2c -4.7344762576872455e-18,3.8659932488155545e-2 3.134006751184445e-2,7.0e-2 6.999999999999998e-2 7.0e-2c 3.8659932488155545e-2,7.101714386530868e-18 7.0e-2,-3.134006751184444e-2 7.000000000000003e-2 -6.999999999999998e-2Z" /></g><g><path d="M 0.9182500209582567,-0.20377260745436393 c 0.0,-3.8659932488155545e-2 -3.1340067511844455e-2,-7.0e-2 -6.999999999999999e-2 -7.0e-2c -3.8659932488155545e-2,-2.3672381288436228e-18 -7.0e-2,3.134006751184445e-2 -7.0e-2 6.999999999999998e-2c -4.7344762576872455e-18,3.8659932488155545e-2 3.134006751184445e-2,7.0e-2 6.999999999999998e-2 7.0e-2c 3.8659932488155545e-2,7.101714386530868e-18 7.0e-2,-3.134006751184444e-2 7.000000000000003e-2 -6.999999999999998e-2Z" /></g><g><path d="M 1.3884775351092558,-2.8781952342418284 c 0.0,-3.8659932488155545e-2 -3.1340067511844455e-2,-7.0e-2 -6.999999999999999e-2 -7.0e-2c -3.8659932488155545e-2,-2.3672381288436228e-18 -7.0e-2,3.134006751184445e-2 -7.0e-2 6.999999999999998e-2c -4.7344762576872455e-18,3.8659932488155545e-2 3.134006751184445e-2,7.0e-2 6.999999999999998e-2 7.0e-2c 3.8659932488155545e-2,7.101714386530868e-18 7.0e-2,-3.134006751184444e-2 7.000000000000003e-2 -6.999999999999998e-2Z" /></g><g><path d="M 3.7466316776253996,-0.40736347635833114 c 0.0,-3.8659932488155545e-2 -3.1340067511844455e-2,-7.0e-2 -6.999999999999999e-2 -7.0e-2c -3.8659932488155545e-2,-2.3672381288436228e-18 -7.0e-2,3.134006751184445e-2 -7.0e-2 6.999999999999998e-2c -4.7344762576872455e-18,3.8659932488155545e-2 3.134006751184445e-2,7.0e-2 6.999999999999998e-2 7.0e-2c 3.8659932488155545e-2,7.101714386530868e-18 7.0e-2,-3.134006751184444e-2 7.000000000000003e-2 -6.999999999999998e-2Z" /></g><g><path d="M 2.621203504699397,-1.048627801627147 c 0.0,-3.8659932488155545e-2 -3.1340067511844455e-2,-7.0e-2 -6.999999999999999e-2 -7.0e-2c -3.8659932488155545e-2,-2.3672381288436228e-18 -7.0e-2,3.134006751184445e-2 -7.0e-2 6.999999999999998e-2c -4.7344762576872455e-18,3.8659932488155545e-2 3.134006751184445e-2,7.0e-2 6.999999999999998e-2 7.0e-2c 3.8659932488155545e-2,7.101714386530868e-18 7.0e-2,-3.134006751184444e-2 7.000000000000003e-2 -6.999999999999998e-2Z" /></g><g><path d="M 2.5119229586982077,-1.6687319064044581 c 0.0,-3.8659932488155545e-2 -3.1340067511844455e-2,-7.0e-2 -6.999999999999999e-2 -7.0e-2c -3.8659932488155545e-2,-2.3672381288436228e-18 -7.0e-2,3.134006751184445e-2 -7.0e-2 6.999999999999998e-2c -4.7344762576872455e-18,3.8659932488155545e-2 3.134006751184445e-2,7.0e-2 6.999999999999998e-2 7.0e-2c 3.8659932488155545e-2,7.101714386530868e-18 7.0e-2,-3.134006751184444e-2 7.000000000000003e-2 -6.999999999999998e-2Z" /></g><g><path d="M 2.071105209967309,-2.9584657012571607 c 0.0,-3.8659932488155545e-2 -3.1340067511844455e-2,-7.0e-2 -6.999999999999999e-2 -7.0e-2c -3.8659932488155545e-2,-2.3672381288436228e-18 -7.0e-2,3.134006751184445e-2 -7.0e-2 6.999999999999998e-2c -4.7344762576872455e-18,3.8659932488155545e-2 3.134006751184445e-2,7.0e-2 6.999999999999998e-2 7.0e-2c 3.8659932488155545e-2,7.101714386530868e-18 7.0e-2,-3.134006751184444e-2 7.000000000000003e-2 -6.999999999999998e-2Z" /></g><g><path d="M 0.9777348042126066,-4.115843880041059 c 0.0,-3.8659932488155545e-2 -3.1340067511844455e-2,-7.0e-2 -6.999999999999999e-2 -7.0e-2c -3.8659932488155545e-2,-2.3672381288436228e-18 -7.0e-2,3.134006751184445e-2 -7.0e-2 6.999999999999998e-2c -4.7344762576872455e-18,3.8659932488155545e-2 3.134006751184445e-2,7.0e-2 6.999999999999998e-2 7.0e-2c 3.8659932488155545e-2,7.101714386530868e-18 7.0e-2,-3.134006751184444e-2 7.000000000000003e-2 -6.999999999999998e-2Z" /></g><g><path d="M 3.7945190810384006,-0.9098127932722615 c 0.0,-3.8659932488155545e-2 -3.1340067511844455e-2,-7.0e-2 -6.999999999999999e-2 -7.0e-2c -3.8659932488155545e-2,-2.3672381288436228e-18 -7.0e-2,3.134006751184445e-2 -7.0e-2 6.999999999999998e-2c -4.7344762576872455e-18,3.8659932488155545e-2 3.134006751184445e-2,7.0e-2 6.999999999999998e-2 7.0e-2c 3.8659932488155545e-2,7.101714386530868e-18 7.0e-2,-3.134006751184444e-2 7.000000000000003e-2 -6.999999999999998e-2Z" /></g><g><path d="M 5.368551727412961,-2.546192415411791 c 0.0,-3.8659932488155545e-2 -3.1340067511844455e-2,-7.0e-2 -6.999999999999999e-2 -7.0e-2c -3.8659932488155545e-2,-2.3672381288436228e-18 -7.0e-2,3.134006751184445e-2 -7.0e-2 6.999999999999998e-2c -4.7344762576872455e-18,3.8659932488155545e-2 3.134006751184445e-2,7.0e-2 6.999999999999998e-2 7.0e-2c 3.8659932488155545e-2,7.101714386530868e-18 7.0e-2,-3.134006751184444e-2 7.000000000000003e-2 -6.999999999999998e-2Z" /></g><g><path d="M 2.654159975057892,-2.073546527163746 c 0.0,-3.8659932488155545e-2 -3.1340067511844455e-2,-7.0e-2 -6.999999999999999e-2 -7.0e-2c -3.8659932488155545e-2,-2.3672381288436228e-18 -7.0e-2,3.134006751184445e-2 -7.0e-2 6.999999999999998e-2c -4.7344762576872455e-18,3.8659932488155545e-2 3.134006751184445e-2,7.0e-2 6.999999999999998e-2 7.0e-2c 3.8659932488155545e-2,7.101714386530868e-18 7.0e-2,-3.134006751184444e-2 7.000000000000003e-2 -6.999999999999998e-2Z" /></g><g><path d="M 1.6332676036625098,-4.477120136647044 c 0.0,-3.8659932488155545e-2 -3.1340067511844455e-2,-7.0e-2 -6.999999999999999e-2 -7.0e-2c -3.8659932488155545e-2,-2.3672381288436228e-18 -7.0e-2,3.134006751184445e-2 -7.0e-2 6.999999999999998e-2c -4.7344762576872455e-18,3.8659932488155545e-2 3.134006751184445e-2,7.0e-2 6.999999999999998e-2 7.0e-2c 3.8659932488155545e-2,7.101714386530868e-18 7.0e-2,-3.134006751184444e-2 7.000000000000003e-2 -6.999999999999998e-2Z" /></g><g><path d="M 1.228303370167596,-3.073765537274329 c 0.0,-3.8659932488155545e-2 -3.1340067511844455e-2,-7.0e-2 -6.999999999999999e-2 -7.0e-2c -3.8659932488155545e-2,-2.3672381288436228e-18 -7.0e-2,3.134006751184445e-2 -7.0e-2 6.999999999999998e-2c -4.7344762576872455e-18,3.8659932488155545e-2 3.134006751184445e-2,7.0e-2 6.999999999999998e-2 7.0e-2c 3.8659932488155545e-2,7.101714386530868e-18 7.0e-2,-3.134006751184444e-2 7.000000000000003e-2 -6.999999999999998e-2Z" /></g><g><path d="M 2.07364310035574,-0.46429854090638495 c 0.0,-3.8659932488155545e-2 -3.1340067511844455e-2,-7.0e-2 -6.999999999999999e-2 -7.0e-2c -3.8659932488155545e-2,-2.3672381288436228e-18 -7.0e-2,3.134006751184445e-2 -7.0e-2 6.999999999999998e-2c -4.7344762576872455e-18,3.8659932488155545e-2 3.134006751184445e-2,7.0e-2 6.999999999999998e-2 7.0e-2c 3.8659932488155545e-2,7.101714386530868e-18 7.0e-2,-3.134006751184444e-2 7.000000000000003e-2 -6.999999999999998e-2Z" /></g><g><path d="M 1.3964234376768294,-4.27279832955956 c 0.0,-3.8659932488155545e-2 -3.1340067511844455e-2,-7.0e-2 -6.999999999999999e-2 -7.0e-2c -3.8659932488155545e-2,-2.3672381288436228e-18 -7.0e-2,3.134006751184445e-2 -7.0e-2 6.999999999999998e-2c -4.7344762576872455e-18,3.8659932488155545e-2 3.134006751184445e-2,7.0e-2 6.999999999999998e-2 7.0e-2c 3.8659932488155545e-2,7.101714386530868e-18 7.0e-2,-3.134006751184444e-2 7.000000000000003e-2 -6.999999999999998e-2Z" /></g><g><path d="M 4.2110277148456925,-1.549222842787006 c 0.0,-3.8659932488155545e-2 -3.1340067511844455e-2,-7.0e-2 -6.999999999999999e-2 -7.0e-2c -3.8659932488155545e-2,-2.3672381288436228e-18 -7.0e-2,3.134006751184445e-2 -7.0e-2 6.999999999999998e-2c -4.7344762576872455e-18,3.8659932488155545e-2 3.134006751184445e-2,7.0e-2 6.999999999999998e-2 7.0e-2c 3.8659932488155545e-2,7.101714386530868e-18 7.0e-2,-3.134006751184444e-2 7.000000000000003e-2 -6.999999999999998e-2Z" /></g><g><path d="M 1.716557504289495,-1.453486608051376 c 0.0,-3.8659932488155545e-2 -3.1340067511844455e-2,-7.0e-2 -6.999999999999999e-2 -7.0e-2c -3.8659932488155545e-2,-2.3672381288436228e-18 -7.0e-2,3.134006751184445e-2 -7.0e-2 6.999999999999998e-2c -4.7344762576872455e-18,3.8659932488155545e-2 3.134006751184445e-2,7.0e-2 6.999999999999998e-2 7.0e-2c 3.8659932488155545e-2,7.101714386530868e-18 7.0e-2,-3.134006751184444e-2 7.000000000000003e-2 -6.999999999999998e-2Z" /></g><g><path d="M 4.635238264767708,-4.507623693742481 c 0.0,-3.8659932488155545e-2 -3.1340067511844455e-2,-7.0e-2 -6.999999999999999e-2 -7.0e-2c -3.8659932488155545e-2,-2.3672381288436228e-18 -7.0e-2,3.134006751184445e-2 -7.0e-2 6.999999999999998e-2c -4.7344762576872455e-18,3.8659932488155545e-2 3.134006751184445e-2,7.0e-2 6.999999999999998e-2 7.0e-2c 3.8659932488155545e-2,7.101714386530868e-18 7.0e-2,-3.134006751184444e-2 7.000000000000003e-2 -6.999999999999998e-2Z" /></g><g><path d="M 4.080257093428443,-3.333799253719073 c 0.0,-3.8659932488155545e-2 -3.1340067511844455e-2,-7.0e-2 -6.999999999999999e-2 -7.0e-2c -3.8659932488155545e-2,-2.3672381288436228e-18 -7.0e-2,3.134006751184445e-2 -7.0e-2 6.999999999999998e-2c -4.7344762576872455e-18,3.8659932488155545e-2 3.134006751184445e-2,7.0e-2 6.999999999999998e-2 7.0e-2c 3.8659932488155545e-2,7.101714386530868e-18 7.0e-2,-3.134006751184444e-2 7.000000000000003e-2 -6.999999999999998e-2Z" /></g><g><path d="M 3.644091043146804,-4.217325056175635 c 0.0,-3.8659932488155545e-2 -3.1340067511844455e-2,-7.0e-2 -6.999999999999999e-2 -7.0e-2c -3.8659932488155545e-2,-2.3672381288436228e-18 -7.0e-2,3.134006751184445e-2 -7.0e-2 6.999999999999998e-2c -4.7344762576872455e-18,3.8659932488155545e-2 3.134006751184445e-2,7.0e-2 6.999999999999998e-2 7.0e-2c 3.8659932488155545e-2,7.101714386530868e-18 7.0e-2,-3.134006751184444e-2 7.000000000000003e-2 -6.999999999999998e-2Z" /></g><g><path d="M 5.019839861125432,-2.595902755355775 c 0.0,-3.8659932488155545e-2 -3.1340067511844455e-2,-7.0e-2 -6.999999999999999e-2 -7.0e-2c -3.8659932488155545e-2,-2.3672381288436228e-18 -7.0e-2,3.134006751184445e-2 -7.0e-2 6.999999999999998e-2c -4.7344762576872455e-18,3.8659932488155545e-2 3.134006751184445e-2,7.0e-2 6.999999999999998e-2 7.0e-2c 3.8659932488155545e-2,7.101714386530868e-18 7.0e-2,-3.134006751184444e-2 7.000000000000003e-2 -6.999999999999998e-2Z" /></g><g><path d="M 0.9522010893098165,-3.708972455156417 c 0.0,-3.8659932488155545e-2 -3.1340067511844455e-2,-7.0e-2 -6.999999999999999e-2 -7.0e-2c -3.8659932488155545e-2,-2.3672381288436228e-18 -7.0e-2,3.134006751184445e-2 -7.0e-2 6.999999999999998e-2c -4.7344762576872455e-18,3.8659932488155545e-2 3.134006751184445e-2,7.0e-2 6.999999999999998e-2 7.0e-2c 3.8659932488155545e-2,7.101714386530868e-18 7.0e-2,-3.134006751184444e-2 7.000000000000003e-2 -6.999999999999998e-2Z" /></g><g><path d="M 3.048377685948945,-3.50681094852798 c 0.0,-3.8659932488155545e-2 -3.1340067511844455e-2,-7.0e-2 -6.999999999999999e-2 -7.0e-2c -3.8659932488155545e-2,-2.3672381288436228e-18 -7.0e-2,3.134006751184445e-2 -7.0e-2 6.999999999999998e-2c -4.7344762576872455e-18,3.8659932488155545e-2 3.134006751184445e-2,7.0e-2 6.999999999999998e-2 7.0e-2c 3.8659932488155545e-2,7.101714386530868e-18 7.0e-2,-3.134006751184444e-2 7.000000000000003e-2 -6.999999999999998e-2Z" /></g><g><path d="M 4.319481761575683,-2.3666445283935085 c 0.0,-3.8659932488155545e-2 -3.1340067511844455e-2,-7.0e-2 -6.999999999999999e-2 -7.0e-2c -3.8659932488155545e-2,-2.3672381288436228e-18 -7.0e-2,3.134006751184445e-2 -7.0e-2 6.999999999999998e-2c -4.7344762576872455e-18,3.8659932488155545e-2 3.134006751184445e-2,7.0e-2 6.999999999999998e-2 7.0e-2c 3.8659932488155545e-2,7.101714386530868e-18 7.0e-2,-3.134006751184444e-2 7.000000000000003e-2 -6.999999999999998e-2Z" /></g><g><path d="M 1.7537154762354636,-3.3776161476114863 c 0.0,-3.8659932488155545e-2 -3.1340067511844455e-2,-7.0e-2 -6.999999999999999e-2 -7.0e-2c -3.8659932488155545e-2,-2.3672381288436228e-18 -7.0e-2,3.134006751184445e-2 -7.0e-2 6.999999999999998e-2c -4.7344762576872455e-18,3.8659932488155545e-2 3.134006751184445e-2,7.0e-2 6.999999999999998e-2 7.0e-2c 3.8659932488155545e-2,7.101714386530868e-18 7.0e-2,-3.134006751184444e-2 7.000000000000003e-2 -6.999999999999998e-2Z" /></g><g><path d="M 1.5529224559822652,-2.633851719043194 c 0.0,-3.8659932488155545e-2 -3.1340067511844455e-2,-7.0e-2 -6.999999999999999e-2 -7.0e-2c -3.8659932488155545e-2,-2.3672381288436228e-18 -7.0e-2,3.134006751184445e-2 -7.0e-2 6.999999999999998e-2c -4.7344762576872455e-18,3.8659932488155545e-2 3.134006751184445e-2,7.0e-2 6.999999999999998e-2 7.0e-2c 3.8659932488155545e-2,7.101714386530868e-18 7.0e-2,-3.134006751184444e-2 7.000000000000003e-2 -6.999999999999998e-2Z" /></g><g><path d="M 0.5918315777872047,-4.510953933896478 c 0.0,-3.8659932488155545e-2 -3.1340067511844455e-2,-7.0e-2 -6.999999999999999e-2 -7.0e-2c -3.8659932488155545e-2,-2.3672381288436228e-18 -7.0e-2,3.134006751184445e-2 -7.0e-2 6.999999999999998e-2c -4.7344762576872455e-18,3.8659932488155545e-2 3.134006751184445e-2,7.0e-2 6.999999999999998e-2 7.0e-2c 3.8659932488155545e-2,7.101714386530868e-18 7.0e-2,-3.134006751184444e-2 7.000000000000003e-2 -6.999999999999998e-2Z" /></g><g><path d="M 1.7601247327808884,-0.20181635936598347 c 0.0,-3.8659932488155545e-2 -3.1340067511844455e-2,-7.0e-2 -6.999999999999999e-2 -7.0e-2c -3.8659932488155545e-2,-2.3672381288436228e-18 -7.0e-2,3.134006751184445e-2 -7.0e-2 6.999999999999998e-2c -4.7344762576872455e-18,3.8659932488155545e-2 3.134006751184445e-2,7.0e-2 6.999999999999998e-2 7.0e-2c 3.8659932488155545e-2,7.101714386530868e-18 7.0e-2,-3.134006751184444e-2 7.000000000000003e-2 -6.999999999999998e-2Z" /></g><g><path d="M 1.3389316952017802,-1.023335301495268 c 0.0,-3.8659932488155545e-2 -3.1340067511844455e-2,-7.0e-2 -6.999999999999999e-2 -7.0e-2c -3.8659932488155545e-2,-2.3672381288436228e-18 -7.0e-2,3.134006751184445e-2 -7.0e-2 6.999999999999998e-2c -4.7344762576872455e-18,3.8659932488155545e-2 3.134006751184445e-2,7.0e-2 6.999999999999998e-2 7.0e-2c 3.8659932488155545e-2,7.101714386530868e-18 7.0e-2,-3.134006751184444e-2 7.000000000000003e-2 -6.999999999999998e-2Z" /></g><g><path d="M 1.7344479702980695,-1.8572671195066255 c 0.0,-3.8659932488155545e-2 -3.1340067511844455e-2,-7.0e-2 -6.999999999999999e-2 -7.0e-2c -3.8659932488155545e-2,-2.3672381288436228e-18 -7.0e-2,3.134006751184445e-2 -7.0e-2 6.999999999999998e-2c -4.7344762576872455e-18,3.8659932488155545e-2 3.134006751184445e-2,7.0e-2 6.999999999999998e-2 7.0e-2c 3.8659932488155545e-2,7.101714386530868e-18 7.0e-2,-3.134006751184444e-2 7.000000000000003e-2 -6.999999999999998e-2Z" /></g><g><path d="M 4.506344873619294,-1.8260203701407574 c 0.0,-3.8659932488155545e-2 -3.1340067511844455e-2,-7.0e-2 -6.999999999999999e-2 -7.0e-2c -3.8659932488155545e-2,-2.3672381288436228e-18 -7.0e-2,3.134006751184445e-2 -7.0e-2 6.999999999999998e-2c -4.7344762576872455e-18,3.8659932488155545e-2 3.134006751184445e-2,7.0e-2 6.999999999999998e-2 7.0e-2c 3.8659932488155545e-2,7.101714386530868e-18 7.0e-2,-3.134006751184444e-2 7.000000000000003e-2 -6.999999999999998e-2Z" /></g><g><path d="M 3.422752157883786,-3.430319275344425 c 0.0,-3.8659932488155545e-2 -3.1340067511844455e-2,-7.0e-2 -6.999999999999999e-2 -7.0e-2c -3.8659932488155545e-2,-2.3672381288436228e-18 -7.0e-2,3.134006751184445e-2 -7.0e-2 6.999999999999998e-2c -4.7344762576872455e-18,3.8659932488155545e-2 3.134006751184445e-2,7.0e-2 6.999999999999998e-2 7.0e-2c 3.8659932488155545e-2,7.101714386530868e-18 7.0e-2,-3.134006751184444e-2 7.000000000000003e-2 -6.999999999999998e-2Z" /></g><g><path d="M 0.9491109553991988,-0.545122135941476 c 0.0,-3.8659932488155545e-2 -3.1340067511844455e-2,-7.0e-2 -6.999999999999999e-2 -7.0e-2c -3.8659932488155545e-2,-2.3672381288436228e-18 -7.0e-2,3.134006751184445e-2 -7.0e-2 6.999999999999998e-2c -4.7344762576872455e-18,3.8659932488155545e-2 3.134006751184445e-2,7.0e-2 6.999999999999998e-2 7.0e-2c 3.8659932488155545e-2,7.101714386530868e-18 7.0e-2,-3.134006751184444e-2 7.000000000000003e-2 -6.999999999999998e-2Z" /></g><g><path d="M 1.091814272294622,-1.7816853173090164 c 0.0,-3.8659932488155545e-2 -3.1340067511844455e-2,-7.0e-2 -6.999999999999999e-2 -7.0e-2c -3.8659932488155545e-2,-2.3672381288436228e-18 -7.0e-2,3.134006751184445e-2 -7.0e-2 6.999999999999998e-2c -4.7344762576872455e-18,3.8659932488155545e-2 3.134006751184445e-2,7.0e-2 6.999999999999998e-2 7.0e-2c 3.8659932488155545e-2,7.101714386530868e-18 7.0e-2,-3.134006751184444e-2 7.000000000000003e-2 -6.999999999999998e-2Z" /></g><g><path d="M 3.9451749772941227,-2.813609186664657 c 0.0,-3.8659932488155545e-2 -3.1340067511844455e-2,-7.0e-2 -6.999999999999999e-2 -7.0e-2c -3.8659932488155545e-2,-2.3672381288436228e-18 -7.0e-2,3.134006751184445e-2 -7.0e-2 6.999999999999998e-2c -4.7344762576872455e-18,3.8659932488155545e-2 3.134006751184445e-2,7.0e-2 6.999999999999998e-2 7.0e-2c 3.8659932488155545e-2,7.101714386530868e-18 7.0e-2,-3.134006751184444e-2 7.000000000000003e-2 -6.999999999999998e-2Z" /></g><g><path d="M 1.7900612327068253,-0.31156320597704734 c 0.0,-3.8659932488155545e-2 -3.1340067511844455e-2,-7.0e-2 -6.999999999999999e-2 -7.0e-2c -3.8659932488155545e-2,-2.3672381288436228e-18 -7.0e-2,3.134006751184445e-2 -7.0e-2 6.999999999999998e-2c -4.7344762576872455e-18,3.8659932488155545e-2 3.134006751184445e-2,7.0e-2 6.999999999999998e-2 7.0e-2c 3.8659932488155545e-2,7.101714386530868e-18 7.0e-2,-3.134006751184444e-2 7.000000000000003e-2 -6.999999999999998e-2Z" /></g><g><path d="M 3.5196199278974767,-2.381684828344809 c 0.0,-3.8659932488155545e-2 -3.1340067511844455e-2,-7.0e-2 -6.999999999999999e-2 -7.0e-2c -3.8659932488155545e-2,-2.3672381288436228e-18 -7.0e-2,3.134006751184445e-2 -7.0e-2 6.999999999999998e-2c -4.7344762576872455e-18,3.8659932488155545e-2 3.134006751184445e-2,7.0e-2 6.999999999999998e-2 7.0e-2c 3.8659932488155545e-2,7.101714386530868e-18 7.0e-2,-3.134006751184444e-2 7.000000000000003e-2 -6.999999999999998e-2Z" /></g><g><path d="M 4.5418584292376165,-2.596011061354986 c 0.0,-3.8659932488155545e-2 -3.1340067511844455e-2,-7.0e-2 -6.999999999999999e-2 -7.0e-2c -3.8659932488155545e-2,-2.3672381288436228e-18 -7.0e-2,3.134006751184445e-2 -7.0e-2 6.999999999999998e-2c -4.7344762576872455e-18,3.8659932488155545e-2 3.134006751184445e-2,7.0e-2 6.999999999999998e-2 7.0e-2c 3.8659932488155545e-2,7.101714386530868e-18 7.0e-2,-3.134006751184444e-2 7.000000000000003e-2 -6.999999999999998e-2Z" /></g><g><path d="M 2.993300469227051,-1.1644291601053711 c 0.0,-3.8659932488155545e-2 -3.1340067511844455e-2,-7.0e-2 -6.999999999999999e-2 -7.0e-2c -3.8659932488155545e-2,-2.3672381288436228e-18 -7.0e-2,3.134006751184445e-2 -7.0e-2 6.999999999999998e-2c -4.7344762576872455e-18,3.8659932488155545e-2 3.134006751184445e-2,7.0e-2 6.999999999999998e-2 7.0e-2c 3.8659932488155545e-2,7.101714386530868e-18 7.0e-2,-3.134006751184444e-2 7.000000000000003e-2 -6.999999999999998e-2Z" /></g><g><path d="M 1.434643267989357,-0.8460575893976139 c 0.0,-3.8659932488155545e-2 -3.1340067511844455e-2,-7.0e-2 -6.999999999999999e-2 -7.0e-2c -3.8659932488155545e-2,-2.3672381288436228e-18 -7.0e-2,3.134006751184445e-2 -7.0e-2 6.999999999999998e-2c -4.7344762576872455e-18,3.8659932488155545e-2 3.134006751184445e-2,7.0e-2 6.999999999999998e-2 7.0e-2c 3.8659932488155545e-2,7.101714386530868e-18 7.0e-2,-3.134006751184444e-2 7.000000000000003e-2 -6.999999999999998e-2Z" /></g><g><path d="M 4.5764532072283135,-1.1856678598220316 c 0.0,-3.8659932488155545e-2 -3.1340067511844455e-2,-7.0e-2 -6.999999999999999e-2 -7.0e-2c -3.8659932488155545e-2,-2.3672381288436228e-18 -7.0e-2,3.134006751184445e-2 -7.0e-2 6.999999999999998e-2c -4.7344762576872455e-18,3.8659932488155545e-2 3.134006751184445e-2,7.0e-2 6.999999999999998e-2 7.0e-2c 3.8659932488155545e-2,7.101714386530868e-18 7.0e-2,-3.134006751184444e-2 7.000000000000003e-2 -6.999999999999998e-2Z" /></g><g><path d="M 1.0460296744618631,-1.5449638510208688 c 0.0,-3.8659932488155545e-2 -3.1340067511844455e-2,-7.0e-2 -6.999999999999999e-2 -7.0e-2c -3.8659932488155545e-2,-2.3672381288436228e-18 -7.0e-2,3.134006751184445e-2 -7.0e-2 6.999999999999998e-2c -4.7344762576872455e-18,3.8659932488155545e-2 3.134006751184445e-2,7.0e-2 6.999999999999998e-2 7.0e-2c 3.8659932488155545e-2,7.101714386530868e-18 7.0e-2,-3.134006751184444e-2 7.000000000000003e-2 -6.999999999999998e-2Z" /></g><g><path d="M 0.9904263449082757,-1.4976745786627421 c 0.0,-3.8659932488155545e-2 -3.1340067511844455e-2,-7.0e-2 -6.999999999999999e-2 -7.0e-2c -3.8659932488155545e-2,-2.3672381288436228e-18 -7.0e-2,3.134006751184445e-2 -7.0e-2 6.999999999999998e-2c -4.7344762576872455e-18,3.8659932488155545e-2 3.134006751184445e-2,7.0e-2 6.999999999999998e-2 7.0e-2c 3.8659932488155545e-2,7.101714386530868e-18 7.0e-2,-3.134006751184444e-2 7.000000000000003e-2 -6.999999999999998e-2Z" /></g><g fill="rgb(0,0,0)" fill-opacity="1.0" stroke-width="0.0"><g fill="rgb(0,0,0)" fill-opacity="1.0"><g fill="rgb(0,0,0)" fill-opacity="1.0"><path d="M 5.13233830845771,0.14693200663349917 ZM 5.16351575456053,6.782752902155888e-2 c -3.1509121061359872e-3,0.0 -1.0447761194029853e-2,2.9850746268656717e-3 -1.4096185737976785e-2 4.643449419568822e-3l -1.9900497512437814e-3,-5.140961857379768e-3 c 1.459369817578773e-2,-6.7993366500829185e-3 2.0232172470978443e-2,-1.0281923714759536e-2 2.8524046434494202e-2 -1.6252072968490877e-2h 3.1509121061359872e-3 v 8.341625207296849e-2 c 0.0,5.970149253731343e-3 8.291873963515756e-4,7.6285240464344945e-3 6.3018242122719744e-3 7.6285240464344945e-3h 8.623548922056386e-3 c 4.975124378109454e-4,0.0 1.326699834162521e-3,3.316749585406302e-4 1.326699834162521e-3 1.3266998341625207e-3v 3.648424543946932e-3 l -2.2719734660033172e-2,-3.316749585406302e-4 l -2.30514096185738e-2,3.316749585406302e-4 v -3.648424543946932e-3 c 1.6583747927031512e-4,-4.975124378109452e-4 3.3167495854063023e-4,-1.3266998341625207e-3 1.326699834162521e-3 -1.3266998341625207e-3h 9.950248756218907e-3 c 6.3018242122719744e-3,0.0 6.3018242122719744e-3,-2.8192371475953566e-3 6.3018242122719744e-3 -7.6285240464344945e-3v -5.704809286898839e-2 c 0.0,-5.638474295190713e-3 0.0,-9.618573797678276e-3 -3.6484245439469326e-3 -9.618573797678276e-3ZM 5.204975124378108,0.14693200663349917 ZM 5.241293532338307,5.6882255389718084e-2 c -7.1310116086235505e-3,0.0 -1.75787728026534e-2,6.965174129353234e-3 -1.75787728026534e-2 4.560530679933665e-2c 0.0,1.3598673300165837e-2 2.4875621890547268e-3,4.0961857379767826e-2 1.7081260364842456e-2 4.0961857379767826e-2c 2.819237147595357e-3,0.0 1.0779436152570482e-2,-1.824212271973466e-3 1.4262023217247101e-2 -1.4759535655058043e-2c 2.1558872305140965e-3,-7.960199004975124e-3 3.3167495854063023e-3,-1.791044776119403e-2 3.3167495854063023e-3 -3.233830845771144e-2c 0.0,-2.1061359867330015e-2 -5.306799336650084e-3,-3.283582089552239e-2 -1.0116086235489222e-2 -3.6981757877280266e-2c -1.8242122719734663e-3,-1.658374792703151e-3 -4.311774461028193e-3,-2.4875621890547263e-3 -6.965174129353235e-3 -2.4875621890547263e-3ZM 5.241293532338307,5.6882255389718084e-2 ZM 5.240630182421226,0.14892205638474296 c -1.7744610281923718e-2,0.0 -2.9684908789386406e-2,-2.271973466003317e-2 -2.9684908789386406e-2 -4.809286898839137e-2c 0.0,-3.101160862354892e-2 1.4759535655058045e-2,-4.975124378109453e-2 3.0348258706467665e-2 -4.975124378109453e-2c 7.1310116086235505e-3,0.0 1.4262023217247101e-2,4.477611940298508e-3 1.907131011608624e-2 1.0945273631840795e-2c 6.965174129353235e-3,9.286898839137645e-3 1.0613598673300167e-2,2.1724709784411277e-2 1.0613598673300167e-2 3.731343283582089e-2c 0.0,3.681592039800995e-2 -1.8242122719734664e-2,4.958540630182421e-2 -3.0348258706467665e-2 4.958540630182421e-2ZM 5.277611940298506,0.14693200663349917 ZM 5.3139303482587055,5.6882255389718084e-2 c -7.1310116086235505e-3,0.0 -1.75787728026534e-2,6.965174129353234e-3 -1.75787728026534e-2 4.560530679933665e-2c 0.0,1.3598673300165837e-2 2.4875621890547268e-3,4.0961857379767826e-2 1.7081260364842456e-2 4.0961857379767826e-2c 2.819237147595357e-3,0.0 1.0779436152570482e-2,-1.824212271973466e-3 1.4262023217247101e-2 -1.4759535655058043e-2c 2.1558872305140965e-3,-7.960199004975124e-3 3.3167495854063023e-3,-1.791044776119403e-2 3.3167495854063023e-3 -3.233830845771144e-2c 0.0,-2.1061359867330015e-2 -5.306799336650084e-3,-3.283582089552239e-2 -1.0116086235489222e-2 -3.6981757877280266e-2c -1.8242122719734663e-3,-1.658374792703151e-3 -4.311774461028193e-3,-2.4875621890547263e-3 -6.965174129353235e-3 -2.4875621890547263e-3ZM 5.3139303482587055,5.6882255389718084e-2 ZM 5.313266998341624,0.14892205638474296 c -1.7744610281923718e-2,0.0 -2.9684908789386406e-2,-2.271973466003317e-2 -2.9684908789386406e-2 -4.809286898839137e-2c 0.0,-3.101160862354892e-2 1.4759535655058045e-2,-4.975124378109453e-2 3.0348258706467665e-2 -4.975124378109453e-2c 7.1310116086235505e-3,0.0 1.4262023217247101e-2,4.477611940298508e-3 1.907131011608624e-2 1.0945273631840795e-2c 6.965174129353235e-3,9.286898839137645e-3 1.0613598673300167e-2,2.1724709784411277e-2 1.0613598673300167e-2 3.731343283582089e-2c 0.0,3.681592039800995e-2 -1.8242122719734664e-2,4.958540630182421e-2 -3.0348258706467665e-2 4.958540630182421e-2ZM 5.350248756218904,0.14693200663349917 ZM 5.3597014925373125,0.14013266998341625 c 0.0,-4.809286898839138e-3 3.980099502487563e-3,-8.789386401326699e-3 8.7893864013267e-3 -8.789386401326699e-3c 4.809286898839138e-3,0.0 8.7893864013267e-3,3.980099502487562e-3 8.7893864013267e-3 8.789386401326699e-3c 0.0,4.809286898839138e-3 -3.980099502487563e-3,8.789386401326699e-3 -8.7893864013267e-3 8.789386401326699e-3c -4.809286898839138e-3,0.0 -8.7893864013267e-3,-3.980099502487562e-3 -8.7893864013267e-3 -8.789386401326699e-3ZM 5.3865671641791035,0.14693200663349917 ZM 5.422885572139302,5.6882255389718084e-2 c -7.1310116086235505e-3,0.0 -1.75787728026534e-2,6.965174129353234e-3 -1.75787728026534e-2 4.560530679933665e-2c 0.0,1.3598673300165837e-2 2.4875621890547268e-3,4.0961857379767826e-2 1.7081260364842456e-2 4.0961857379767826e-2c 2.819237147595357e-3,0.0 1.0779436152570482e-2,-1.824212271973466e-3 1.4262023217247101e-2 -1.4759535655058043e-2c 2.1558872305140965e-3,-7.960199004975124e-3 3.3167495854063023e-3,-1.791044776119403e-2 3.3167495854063023e-3 -3.233830845771144e-2c 0.0,-2.1061359867330015e-2 -5.306799336650084e-3,-3.283582089552239e-2 -1.0116086235489222e-2 -3.6981757877280266e-2c -1.8242122719734663e-3,-1.658374792703151e-3 -4.311774461028193e-3,-2.4875621890547263e-3 -6.965174129353235e-3 -2.4875621890547263e-3ZM 5.422885572139302,5.6882255389718084e-2 ZM 5.422222222222221,0.14892205638474296 c -1.7744610281923718e-2,0.0 -2.9684908789386406e-2,-2.271973466003317e-2 -2.9684908789386406e-2 -4.809286898839137e-2c 0.0,-3.101160862354892e-2 1.4759535655058045e-2,-4.975124378109453e-2 3.0348258706467665e-2 -4.975124378109453e-2c 7.1310116086235505e-3,0.0 1.4262023217247101e-2,4.477611940298508e-3 1.907131011608624e-2 1.0945273631840795e-2c 6.965174129353235e-3,9.286898839137645e-3 1.0613598673300167e-2,2.1724709784411277e-2 1.0613598673300167e-2 3.731343283582089e-2c 0.0,3.681592039800995e-2 -1.8242122719734664e-2,4.958540630182421e-2 -3.0348258706467665e-2 4.958540630182421e-2Z" /></g></g></g><g fill="rgb(0,0,0)" fill-opacity="1.0" stroke-width="0.0"><g fill="rgb(0,0,0)" fill-opacity="1.0"><g fill="rgb(0,0,0)" fill-opacity="1.0"><path d="M 3.8970563847429514,0.14693200663349917 ZM 3.9483001658374786,0.11890547263681592 c 0.0,-1.7081260364842456e-2 -9.286898839137645e-3,-2.5538971807628524e-2 -1.956882255389718e-2 -2.5538971807628524e-2c -7.6285240464344945e-3,0.0 -1.3432835820895522e-2,1.1608623548922056e-3 -1.990049751243781e-2 3.8142620232172473e-3l 5.306799336650083e-3,-4.527363184079602e-2 c 5.4726368159203976e-3,4.975124378109452e-4 1.1111111111111112e-2,6.633499170812604e-4 1.691542288557214e-2 6.633499170812604e-4c 8.291873963515755e-3,0.0 1.691542288557214e-2,-4.975124378109452e-4 2.5870646766169153e-2 -1.4925373134328358e-3l 9.950248756218905e-4,4.975124378109452e-4 l -2.4875621890547263e-3,1.077943615257048e-2 c -6.467661691542288e-3,6.633499170812604e-4 -1.1774461028192372e-2,8.291873963515755e-4 -1.6417910447761194e-2 8.291873963515755e-4c -7.462686567164179e-3,0.0 -1.3101160862354893e-2,-6.633499170812604e-4 -1.890547263681592e-2 -1.3266998341625207e-3l -3.150912106135987e-3,2.6202321724709786e-2 c 3.482587064676617e-3,-1.3266998341625207e-3 9.45273631840796e-3,-2.4875621890547263e-3 1.5920398009950248e-2 -2.4875621890547263e-3c 1.7578772802653398e-2,0.0 2.736318407960199e-2,1.5257048092868989e-2 2.736318407960199e-2 3.0514096185737978e-2c 0.0,1.857379767827529e-2 -1.2935323383084577e-2,3.283582089552239e-2 -3.167495854063018e-2 3.283582089552239e-2c -9.45273631840796e-3,0.0 -2.321724709784411e-2,-5.306799336650083e-3 -2.321724709784411e-2 -1.1774461028192372e-2c 0.0,-3.150912106135987e-3 2.6533996683250414e-3,-5.306799336650083e-3 5.638474295190713e-3 -5.306799336650083e-3c 3.316749585406302e-3,0.0 5.4726368159203976e-3,2.4875621890547263e-3 7.462686567164179e-3 5.140961857379768e-3c 2.4875621890547263e-3,2.9850746268656717e-3 5.140961857379768e-3,6.301824212271974e-3 1.0447761194029851e-2 6.301824212271974e-3c 1.0613598673300166e-2,0.0 1.9402985074626865e-2,-9.950248756218905e-3 1.9402985074626865e-2 -2.437810945273632e-2ZM 3.9696932006633494,0.14693200663349917 ZM 4.006011608623548,5.6882255389718084e-2 c -7.131011608623549e-3,0.0 -1.7578772802653398e-2,6.965174129353234e-3 -1.7578772802653398e-2 4.560530679933665e-2c 0.0,1.3598673300165837e-2 2.4875621890547263e-3,4.0961857379767826e-2 1.7081260364842456e-2 4.0961857379767826e-2c 2.8192371475953566e-3,0.0 1.077943615257048e-2,-1.824212271973466e-3 1.4262023217247097e-2 -1.4759535655058043e-2c 2.155887230514096e-3,-7.960199004975124e-3 3.316749585406302e-3,-1.791044776119403e-2 3.316749585406302e-3 -3.233830845771144e-2c 0.0,-2.1061359867330015e-2 -5.306799336650083e-3,-3.283582089552239e-2 -1.011608623548922e-2 -3.6981757877280266e-2c -1.824212271973466e-3,-1.658374792703151e-3 -4.311774461028192e-3,-2.4875621890547263e-3 -6.965174129353234e-3 -2.4875621890547263e-3ZM 4.006011608623548,5.6882255389718084e-2 ZM 4.0053482587064675,0.14892205638474296 c -1.7744610281923714e-2,0.0 -2.96849087893864e-2,-2.271973466003317e-2 -2.96849087893864e-2 -4.809286898839137e-2c 0.0,-3.101160862354892e-2 1.4759535655058043e-2,-4.975124378109453e-2 3.034825870646766e-2 -4.975124378109453e-2c 7.131011608623549e-3,0.0 1.4262023217247097e-2,4.477611940298508e-3 1.9071310116086235e-2 1.0945273631840795e-2c 6.965174129353234e-3,9.286898839137645e-3 1.0613598673300166e-2,2.1724709784411277e-2 1.0613598673300166e-2 3.731343283582089e-2c 0.0,3.681592039800995e-2 -1.824212271973466e-2,4.958540630182421e-2 -3.034825870646766e-2 4.958540630182421e-2ZM 4.0423300165837475,0.14693200663349917 ZM 4.051782752902155,0.14013266998341625 c 0.0,-4.809286898839138e-3 3.980099502487562e-3,-8.789386401326699e-3 8.789386401326699e-3 -8.789386401326699e-3c 4.809286898839138e-3,0.0 8.789386401326699e-3,3.980099502487562e-3 8.789386401326699e-3 8.789386401326699e-3c 0.0,4.809286898839138e-3 -3.980099502487562e-3,8.789386401326699e-3 -8.789386401326699e-3 8.789386401326699e-3c -4.809286898839138e-3,0.0 -8.789386401326699e-3,-3.980099502487562e-3 -8.789386401326699e-3 -8.789386401326699e-3ZM 4.078648424543946,0.14693200663349917 ZM 4.1149668325041455,5.6882255389718084e-2 c -7.131011608623549e-3,0.0 -1.7578772802653398e-2,6.965174129353234e-3 -1.7578772802653398e-2 4.560530679933665e-2c 0.0,1.3598673300165837e-2 2.4875621890547263e-3,4.0961857379767826e-2 1.7081260364842456e-2 4.0961857379767826e-2c 2.8192371475953566e-3,0.0 1.077943615257048e-2,-1.824212271973466e-3 1.4262023217247097e-2 -1.4759535655058043e-2c 2.155887230514096e-3,-7.960199004975124e-3 3.316749585406302e-3,-1.791044776119403e-2 3.316749585406302e-3 -3.233830845771144e-2c 0.0,-2.1061359867330015e-2 -5.306799336650083e-3,-3.283582089552239e-2 -1.011608623548922e-2 -3.6981757877280266e-2c -1.824212271973466e-3,-1.658374792703151e-3 -4.311774461028192e-3,-2.4875621890547263e-3 -6.965174129353234e-3 -2.4875621890547263e-3ZM 4.1149668325041455,5.6882255389718084e-2 ZM 4.114303482587064,0.14892205638474296 c -1.7744610281923714e-2,0.0 -2.96849087893864e-2,-2.271973466003317e-2 -2.96849087893864e-2 -4.809286898839137e-2c 0.0,-3.101160862354892e-2 1.4759535655058043e-2,-4.975124378109453e-2 3.034825870646766e-2 -4.975124378109453e-2c 7.131011608623549e-3,0.0 1.4262023217247097e-2,4.477611940298508e-3 1.9071310116086235e-2 1.0945273631840795e-2c 6.965174129353234e-3,9.286898839137645e-3 1.0613598673300166e-2,2.1724709784411277e-2 1.0613598673300166e-2 3.731343283582089e-2c 0.0,3.681592039800995e-2 -1.824212271973466e-2,4.958540630182421e-2 -3.034825870646766e-2 4.958540630182421e-2Z" /></g></g></g><g fill="rgb(0,0,0)" fill-opacity="1.0" stroke-width="0.0"><g fill="rgb(0,0,0)" fill-opacity="1.0"><g fill="rgb(0,0,0)" fill-opacity="1.0"><path d="M 2.6595356550580425,0.14693200663349917 ZM 2.6958540630182415,5.6882255389718084e-2 c -7.131011608623549e-3,0.0 -1.7578772802653398e-2,6.965174129353234e-3 -1.7578772802653398e-2 4.560530679933665e-2c 0.0,1.3598673300165837e-2 2.4875621890547263e-3,4.0961857379767826e-2 1.7081260364842456e-2 4.0961857379767826e-2c 2.8192371475953566e-3,0.0 1.077943615257048e-2,-1.824212271973466e-3 1.4262023217247097e-2 -1.4759535655058043e-2c 2.155887230514096e-3,-7.960199004975124e-3 3.316749585406302e-3,-1.791044776119403e-2 3.316749585406302e-3 -3.233830845771144e-2c 0.0,-2.1061359867330015e-2 -5.306799336650083e-3,-3.283582089552239e-2 -1.011608623548922e-2 -3.6981757877280266e-2c -1.824212271973466e-3,-1.658374792703151e-3 -4.311774461028192e-3,-2.4875621890547263e-3 -6.965174129353234e-3 -2.4875621890547263e-3ZM 2.6958540630182415,5.6882255389718084e-2 ZM 2.6951907131011605,0.14892205638474296 c -1.7744610281923714e-2,0.0 -2.96849087893864e-2,-2.271973466003317e-2 -2.96849087893864e-2 -4.809286898839137e-2c 0.0,-3.101160862354892e-2 1.4759535655058043e-2,-4.975124378109453e-2 3.034825870646766e-2 -4.975124378109453e-2c 7.131011608623549e-3,0.0 1.4262023217247097e-2,4.477611940298508e-3 1.9071310116086235e-2 1.0945273631840795e-2c 6.965174129353234e-3,9.286898839137645e-3 1.0613598673300166e-2,2.1724709784411277e-2 1.0613598673300166e-2 3.731343283582089e-2c 0.0,3.681592039800995e-2 -1.824212271973466e-2,4.958540630182421e-2 -3.034825870646766e-2 4.958540630182421e-2ZM 2.7321724709784405,0.14693200663349917 ZM 2.7416252072968486,0.14013266998341625 c 0.0,-4.809286898839138e-3 3.980099502487562e-3,-8.789386401326699e-3 8.789386401326699e-3 -8.789386401326699e-3c 4.809286898839138e-3,0.0 8.789386401326699e-3,3.980099502487562e-3 8.789386401326699e-3 8.789386401326699e-3c 0.0,4.809286898839138e-3 -3.980099502487562e-3,8.789386401326699e-3 -8.789386401326699e-3 8.789386401326699e-3c -4.809286898839138e-3,0.0 -8.789386401326699e-3,-3.980099502487562e-3 -8.789386401326699e-3 -8.789386401326699e-3ZM 2.7684908789386395,0.14693200663349917 ZM 2.8048092868988386,5.6882255389718084e-2 c -7.131011608623549e-3,0.0 -1.7578772802653398e-2,6.965174129353234e-3 -1.7578772802653398e-2 4.560530679933665e-2c 0.0,1.3598673300165837e-2 2.4875621890547263e-3,4.0961857379767826e-2 1.7081260364842456e-2 4.0961857379767826e-2c 2.8192371475953566e-3,0.0 1.077943615257048e-2,-1.824212271973466e-3 1.4262023217247097e-2 -1.4759535655058043e-2c 2.155887230514096e-3,-7.960199004975124e-3 3.316749585406302e-3,-1.791044776119403e-2 3.316749585406302e-3 -3.233830845771144e-2c 0.0,-2.1061359867330015e-2 -5.306799336650083e-3,-3.283582089552239e-2 -1.011608623548922e-2 -3.6981757877280266e-2c -1.824212271973466e-3,-1.658374792703151e-3 -4.311774461028192e-3,-2.4875621890547263e-3 -6.965174129353234e-3 -2.4875621890547263e-3ZM 2.8048092868988386,5.6882255389718084e-2 ZM 2.8041459369817576,0.14892205638474296 c -1.7744610281923714e-2,0.0 -2.96849087893864e-2,-2.271973466003317e-2 -2.96849087893864e-2 -4.809286898839137e-2c 0.0,-3.101160862354892e-2 1.4759535655058043e-2,-4.975124378109453e-2 3.034825870646766e-2 -4.975124378109453e-2c 7.131011608623549e-3,0.0 1.4262023217247097e-2,4.477611940298508e-3 1.9071310116086235e-2 1.0945273631840795e-2c 6.965174129353234e-3,9.286898839137645e-3 1.0613598673300166e-2,2.1724709784411277e-2 1.0613598673300166e-2 3.731343283582089e-2c 0.0,3.681592039800995e-2 -1.824212271973466e-2,4.958540630182421e-2 -3.034825870646766e-2 4.958540630182421e-2Z" /></g></g></g><g fill="rgb(0,0,0)" fill-opacity="1.0" stroke-width="0.0"><g fill="rgb(0,0,0)" fill-opacity="1.0"><g fill="rgb(0,0,0)" fill-opacity="1.0"><path d="M 1.320854063018242,0.14693200663349917 ZM 1.3662935323383083,0.10779436152570482 h -3.747927031509121e-2 c -1.4925373134328358e-3,0.0 -2.4875621890547263e-3,-1.3266998341625207e-3 -2.4875621890547263e-3 -2.8192371475953566e-3c 0.0,-2.6533996683250414e-3 2.155887230514096e-3,-6.135986733001658e-3 4.1459369817578775e-3 -6.135986733001658e-3h 3.797678275290216e-2 c 1.658374792703151e-3,0.0 2.321724709784411e-3,1.4925373134328358e-3 2.321724709784411e-3 2.9850746268656717e-3c 0.0,1.824212271973466e-3 -2.321724709784411e-3,5.970149253731343e-3 -4.477611940298508e-3 5.970149253731343e-3ZM 1.3760779436152568,0.14693200663349917 ZM 1.4273217247097842,0.11890547263681592 c 0.0,-1.7081260364842456e-2 -9.286898839137645e-3,-2.5538971807628524e-2 -1.956882255389718e-2 -2.5538971807628524e-2c -7.6285240464344945e-3,0.0 -1.3432835820895522e-2,1.1608623548922056e-3 -1.990049751243781e-2 3.8142620232172473e-3l 5.306799336650083e-3,-4.527363184079602e-2 c 5.4726368159203976e-3,4.975124378109452e-4 1.1111111111111112e-2,6.633499170812604e-4 1.691542288557214e-2 6.633499170812604e-4c 8.291873963515755e-3,0.0 1.691542288557214e-2,-4.975124378109452e-4 2.5870646766169153e-2 -1.4925373134328358e-3l 9.950248756218905e-4,4.975124378109452e-4 l -2.4875621890547263e-3,1.077943615257048e-2 c -6.467661691542288e-3,6.633499170812604e-4 -1.1774461028192372e-2,8.291873963515755e-4 -1.6417910447761194e-2 8.291873963515755e-4c -7.462686567164179e-3,0.0 -1.3101160862354893e-2,-6.633499170812604e-4 -1.890547263681592e-2 -1.3266998341625207e-3l -3.150912106135987e-3,2.6202321724709786e-2 c 3.482587064676617e-3,-1.3266998341625207e-3 9.45273631840796e-3,-2.4875621890547263e-3 1.5920398009950248e-2 -2.4875621890547263e-3c 1.7578772802653398e-2,0.0 2.736318407960199e-2,1.5257048092868989e-2 2.736318407960199e-2 3.0514096185737978e-2c 0.0,1.857379767827529e-2 -1.2935323383084577e-2,3.283582089552239e-2 -3.167495854063018e-2 3.283582089552239e-2c -9.45273631840796e-3,0.0 -2.321724709784411e-2,-5.306799336650083e-3 -2.321724709784411e-2 -1.1774461028192372e-2c 0.0,-3.150912106135987e-3 2.6533996683250414e-3,-5.306799336650083e-3 5.638474295190713e-3 -5.306799336650083e-3c 3.316749585406302e-3,0.0 5.4726368159203976e-3,2.4875621890547263e-3 7.462686567164179e-3 5.140961857379768e-3c 2.4875621890547263e-3,2.9850746268656717e-3 5.140961857379768e-3,6.301824212271974e-3 1.0447761194029851e-2 6.301824212271974e-3c 1.0613598673300166e-2,0.0 1.9402985074626865e-2,-9.950248756218905e-3 1.9402985074626865e-2 -2.437810945273632e-2ZM 1.4487147595356549,0.14693200663349917 ZM 1.485033167495854,5.6882255389718084e-2 c -7.131011608623549e-3,0.0 -1.7578772802653398e-2,6.965174129353234e-3 -1.7578772802653398e-2 4.560530679933665e-2c 0.0,1.3598673300165837e-2 2.4875621890547263e-3,4.0961857379767826e-2 1.7081260364842456e-2 4.0961857379767826e-2c 2.8192371475953566e-3,0.0 1.077943615257048e-2,-1.824212271973466e-3 1.4262023217247097e-2 -1.4759535655058043e-2c 2.155887230514096e-3,-7.960199004975124e-3 3.316749585406302e-3,-1.791044776119403e-2 3.316749585406302e-3 -3.233830845771144e-2c 0.0,-2.1061359867330015e-2 -5.306799336650083e-3,-3.283582089552239e-2 -1.011608623548922e-2 -3.6981757877280266e-2c -1.824212271973466e-3,-1.658374792703151e-3 -4.311774461028192e-3,-2.4875621890547263e-3 -6.965174129353234e-3 -2.4875621890547263e-3ZM 1.485033167495854,5.6882255389718084e-2 ZM 1.4843698175787727,0.14892205638474296 c -1.7744610281923714e-2,0.0 -2.96849087893864e-2,-2.271973466003317e-2 -2.96849087893864e-2 -4.809286898839137e-2c 0.0,-3.101160862354892e-2 1.4759535655058043e-2,-4.975124378109453e-2 3.034825870646766e-2 -4.975124378109453e-2c 7.131011608623549e-3,0.0 1.4262023217247097e-2,4.477611940298508e-3 1.9071310116086235e-2 1.0945273631840795e-2c 6.965174129353234e-3,9.286898839137645e-3 1.0613598673300166e-2,2.1724709784411277e-2 1.0613598673300166e-2 3.731343283582089e-2c 0.0,3.681592039800995e-2 -1.824212271973466e-2,4.958540630182421e-2 -3.034825870646766e-2 4.958540630182421e-2ZM 1.521351575456053,0.14693200663349917 ZM 1.530804311774461,0.14013266998341625 c 0.0,-4.809286898839138e-3 3.980099502487562e-3,-8.789386401326699e-3 8.789386401326699e-3 -8.789386401326699e-3c 4.809286898839138e-3,0.0 8.789386401326699e-3,3.980099502487562e-3 8.789386401326699e-3 8.789386401326699e-3c 0.0,4.809286898839138e-3 -3.980099502487562e-3,8.789386401326699e-3 -8.789386401326699e-3 8.789386401326699e-3c -4.809286898839138e-3,0.0 -8.789386401326699e-3,-3.980099502487562e-3 -8.789386401326699e-3 -8.789386401326699e-3ZM 1.557669983416252,0.14693200663349917 ZM 1.593988391376451,5.6882255389718084e-2 c -7.131011608623549e-3,0.0 -1.7578772802653398e-2,6.965174129353234e-3 -1.7578772802653398e-2 4.560530679933665e-2c 0.0,1.3598673300165837e-2 2.4875621890547263e-3,4.0961857379767826e-2 1.7081260364842456e-2 4.0961857379767826e-2c 2.8192371475953566e-3,0.0 1.077943615257048e-2,-1.824212271973466e-3 1.4262023217247097e-2 -1.4759535655058043e-2c 2.155887230514096e-3,-7.960199004975124e-3 3.316749585406302e-3,-1.791044776119403e-2 3.316749585406302e-3 -3.233830845771144e-2c 0.0,-2.1061359867330015e-2 -5.306799336650083e-3,-3.283582089552239e-2 -1.011608623548922e-2 -3.6981757877280266e-2c -1.824212271973466e-3,-1.658374792703151e-3 -4.311774461028192e-3,-2.4875621890547263e-3 -6.965174129353234e-3 -2.4875621890547263e-3ZM 1.593988391376451,5.6882255389718084e-2 ZM 1.5933250414593698,0.14892205638474296 c -1.7744610281923714e-2,0.0 -2.96849087893864e-2,-2.271973466003317e-2 -2.96849087893864e-2 -4.809286898839137e-2c 0.0,-3.101160862354892e-2 1.4759535655058043e-2,-4.975124378109453e-2 3.034825870646766e-2 -4.975124378109453e-2c 7.131011608623549e-3,0.0 1.4262023217247097e-2,4.477611940298508e-3 1.9071310116086235e-2 1.0945273631840795e-2c 6.965174129353234e-3,9.286898839137645e-3 1.0613598673300166e-2,2.1724709784411277e-2 1.0613598673300166e-2 3.731343283582089e-2c 0.0,3.681592039800995e-2 -1.824212271973466e-2,4.958540630182421e-2 -3.034825870646766e-2 4.958540630182421e-2Z" /></g></g></g><g fill="rgb(0,0,0)" fill-opacity="1.0" stroke-width="0.0"><g fill="rgb(0,0,0)" fill-opacity="1.0"><g fill="rgb(0,0,0)" fill-opacity="1.0"><path d="M 9.53565505804313e-3,0.14693200663349917 ZM 5.4975124378109474e-2,0.10779436152570482 h -3.747927031509121e-2 c -1.4925373134328358e-3,0.0 -2.4875621890547263e-3,-1.3266998341625207e-3 -2.4875621890547263e-3 -2.8192371475953566e-3c 0.0,-2.6533996683250414e-3 2.155887230514096e-3,-6.135986733001658e-3 4.1459369817578775e-3 -6.135986733001658e-3h 3.797678275290216e-2 c 1.658374792703151e-3,0.0 2.321724709784411e-3,1.4925373134328358e-3 2.321724709784411e-3 2.9850746268656717e-3c 0.0,1.824212271973466e-3 -2.321724709784411e-3,5.970149253731343e-3 -4.477611940298508e-3 5.970149253731343e-3ZM 6.475953565505804e-2,0.14693200663349917 ZM 9.59369817578773e-2,6.782752902155888e-2 c -3.150912106135987e-3,0.0 -1.0447761194029851e-2,2.9850746268656717e-3 -1.4096185737976783e-2 4.643449419568822e-3l -1.990049751243781e-3,-5.140961857379768e-3 c 1.4593698175787729e-2,-6.7993366500829185e-3 2.023217247097844e-2,-1.0281923714759536e-2 2.8524046434494195e-2 -1.6252072968490877e-2h 3.150912106135987e-3 v 8.341625207296849e-2 c 0.0,5.970149253731343e-3 8.291873963515755e-4,7.6285240464344945e-3 6.301824212271974e-3 7.6285240464344945e-3h 8.623548922056384e-3 c 4.975124378109452e-4,0.0 1.3266998341625207e-3,3.316749585406302e-4 1.3266998341625207e-3 1.3266998341625207e-3v 3.648424543946932e-3 l -2.271973466003317e-2,-3.316749585406302e-4 l -2.3051409618573798e-2,3.316749585406302e-4 v -3.648424543946932e-3 c 1.658374792703151e-4,-4.975124378109452e-4 3.316749585406302e-4,-1.3266998341625207e-3 1.3266998341625207e-3 -1.3266998341625207e-3h 9.950248756218905e-3 c 6.301824212271974e-3,0.0 6.301824212271974e-3,-2.8192371475953566e-3 6.301824212271974e-3 -7.6285240464344945e-3v -5.704809286898839e-2 c 0.0,-5.638474295190713e-3 0.0,-9.618573797678276e-3 -3.648424543946932e-3 -9.618573797678276e-3ZM 0.13739635157545607,0.14693200663349917 ZM 0.17371475953565507,5.6882255389718084e-2 c -7.131011608623549e-3,0.0 -1.7578772802653398e-2,6.965174129353234e-3 -1.7578772802653398e-2 4.560530679933665e-2c 0.0,1.3598673300165837e-2 2.4875621890547263e-3,4.0961857379767826e-2 1.7081260364842456e-2 4.0961857379767826e-2c 2.8192371475953566e-3,0.0 1.077943615257048e-2,-1.824212271973466e-3 1.4262023217247097e-2 -1.4759535655058043e-2c 2.155887230514096e-3,-7.960199004975124e-3 3.316749585406302e-3,-1.791044776119403e-2 3.316749585406302e-3 -3.233830845771144e-2c 0.0,-2.1061359867330015e-2 -5.306799336650083e-3,-3.283582089552239e-2 -1.011608623548922e-2 -3.6981757877280266e-2c -1.824212271973466e-3,-1.658374792703151e-3 -4.311774461028192e-3,-2.4875621890547263e-3 -6.965174129353234e-3 -2.4875621890547263e-3ZM 0.17371475953565507,5.6882255389718084e-2 ZM 0.17305140961857382,0.14892205638474296 c -1.7744610281923714e-2,0.0 -2.96849087893864e-2,-2.271973466003317e-2 -2.96849087893864e-2 -4.809286898839137e-2c 0.0,-3.101160862354892e-2 1.4759535655058043e-2,-4.975124378109453e-2 3.034825870646766e-2 -4.975124378109453e-2c 7.131011608623549e-3,0.0 1.4262023217247097e-2,4.477611940298508e-3 1.9071310116086235e-2 1.0945273631840795e-2c 6.965174129353234e-3,9.286898839137645e-3 1.0613598673300166e-2,2.1724709784411277e-2 1.0613598673300166e-2 3.731343283582089e-2c 0.0,3.681592039800995e-2 -1.824212271973466e-2,4.958540630182421e-2 -3.034825870646766e-2 4.958540630182421e-2ZM 0.21003316749585407,0.14693200663349917 ZM 0.24635157545605307,5.6882255389718084e-2 c -7.131011608623549e-3,0.0 -1.7578772802653398e-2,6.965174129353234e-3 -1.7578772802653398e-2 4.560530679933665e-2c 0.0,1.3598673300165837e-2 2.4875621890547263e-3,4.0961857379767826e-2 1.7081260364842456e-2 4.0961857379767826e-2c 2.8192371475953566e-3,0.0 1.077943615257048e-2,-1.824212271973466e-3 1.4262023217247097e-2 -1.4759535655058043e-2c 2.155887230514096e-3,-7.960199004975124e-3 3.316749585406302e-3,-1.791044776119403e-2 3.316749585406302e-3 -3.233830845771144e-2c 0.0,-2.1061359867330015e-2 -5.306799336650083e-3,-3.283582089552239e-2 -1.011608623548922e-2 -3.6981757877280266e-2c -1.824212271973466e-3,-1.658374792703151e-3 -4.311774461028192e-3,-2.4875621890547263e-3 -6.965174129353234e-3 -2.4875621890547263e-3ZM 0.24635157545605307,5.6882255389718084e-2 ZM 0.24568822553897182,0.14892205638474296 c -1.7744610281923714e-2,0.0 -2.96849087893864e-2,-2.271973466003317e-2 -2.96849087893864e-2 -4.809286898839137e-2c 0.0,-3.101160862354892e-2 1.4759535655058043e-2,-4.975124378109453e-2 3.034825870646766e-2 -4.975124378109453e-2c 7.131011608623549e-3,0.0 1.4262023217247097e-2,4.477611940298508e-3 1.9071310116086235e-2 1.0945273631840795e-2c 6.965174129353234e-3,9.286898839137645e-3 1.0613598673300166e-2,2.1724709784411277e-2 1.0613598673300166e-2 3.731343283582089e-2c 0.0,3.681592039800995e-2 -1.824212271973466e-2,4.958540630182421e-2 -3.034825870646766e-2 4.958540630182421e-2ZM 0.28266998341625205,0.14693200663349917 ZM 0.2921227197346601,0.14013266998341625 c 0.0,-4.809286898839138e-3 3.980099502487562e-3,-8.789386401326699e-3 8.789386401326699e-3 -8.789386401326699e-3c 4.809286898839138e-3,0.0 8.789386401326699e-3,3.980099502487562e-3 8.789386401326699e-3 8.789386401326699e-3c 0.0,4.809286898839138e-3 -3.980099502487562e-3,8.789386401326699e-3 -8.789386401326699e-3 8.789386401326699e-3c -4.809286898839138e-3,0.0 -8.789386401326699e-3,-3.980099502487562e-3 -8.789386401326699e-3 -8.789386401326699e-3ZM 0.3189883913764511,0.14693200663349917 ZM 0.3553067993366501,5.6882255389718084e-2 c -7.131011608623549e-3,0.0 -1.7578772802653398e-2,6.965174129353234e-3 -1.7578772802653398e-2 4.560530679933665e-2c 0.0,1.3598673300165837e-2 2.4875621890547263e-3,4.0961857379767826e-2 1.7081260364842456e-2 4.0961857379767826e-2c 2.8192371475953566e-3,0.0 1.077943615257048e-2,-1.824212271973466e-3 1.4262023217247097e-2 -1.4759535655058043e-2c 2.155887230514096e-3,-7.960199004975124e-3 3.316749585406302e-3,-1.791044776119403e-2 3.316749585406302e-3 -3.233830845771144e-2c 0.0,-2.1061359867330015e-2 -5.306799336650083e-3,-3.283582089552239e-2 -1.011608623548922e-2 -3.6981757877280266e-2c -1.824212271973466e-3,-1.658374792703151e-3 -4.311774461028192e-3,-2.4875621890547263e-3 -6.965174129353234e-3 -2.4875621890547263e-3ZM 0.3553067993366501,5.6882255389718084e-2 ZM 0.3546434494195688,0.14892205638474296 c -1.7744610281923714e-2,0.0 -2.96849087893864e-2,-2.271973466003317e-2 -2.96849087893864e-2 -4.809286898839137e-2c 0.0,-3.101160862354892e-2 1.4759535655058043e-2,-4.975124378109453e-2 3.034825870646766e-2 -4.975124378109453e-2c 7.131011608623549e-3,0.0 1.4262023217247097e-2,4.477611940298508e-3 1.9071310116086235e-2 1.0945273631840795e-2c 6.965174129353234e-3,9.286898839137645e-3 1.0613598673300166e-2,2.1724709784411277e-2 1.0613598673300166e-2 3.731343283582089e-2c 0.0,3.681592039800995e-2 -1.824212271973466e-2,4.958540630182421e-2 -3.034825870646766e-2 4.958540630182421e-2Z" /></g></g></g><g><path d="M 5.2999999999999945,0.0 v -5.0e-2 " /><path d="M 5.0449999999999955,0.0 v -5.0e-2 " /><path d="M 4.7899999999999965,0.0 v -5.0e-2 " /><path d="M 4.5349999999999975,0.0 v -5.0e-2 " /><path d="M 4.2799999999999985,0.0 v -5.0e-2 " /><path d="M 4.024999999999999,0.0 v -5.0e-2 " /><path d="M 3.769999999999999,0.0 v -5.0e-2 " /><path d="M 3.5149999999999992,0.0 v -5.0e-2 " /><path d="M 3.2599999999999993,0.0 v -5.0e-2 " /><path d="M 3.0049999999999994,0.0 v -5.0e-2 " /><path d="M 2.7499999999999996,0.0 v -5.0e-2 " /><path d="M 2.4949999999999997,0.0 v -5.0e-2 " /><path d="M 2.2399999999999998,0.0 v -5.0e-2 " /><path d="M 1.9849999999999997,0.0 v -5.0e-2 " /><path d="M 1.7299999999999998,0.0 v -5.0e-2 " /><path d="M 1.4749999999999999,0.0 v -5.0e-2 " /><path d="M 1.22,0.0 v -5.0e-2 " /><path d="M 0.9650000000000001,0.0 v -5.0e-2 " /><path d="M 0.71,0.0 v -5.0e-2 " /><path d="M 0.455,0.0 v -5.0e-2 " /><path d="M 0.2,0.0 v -5.0e-2 " /><path d="M 5.3,0.0 v -0.1 " /><path d="M 4.0249999999999995,0.0 v -0.1 " /><path d="M 2.75,0.0 v -0.1 " /><path d="M 1.4749999999999999,0.0 v -0.1 " /><path d="M 0.2,0.0 v -0.1 " /></g><path d="M 0.0,0.0 h 5.5 " /><g><path d="M 5.5,0.0 l 2.9391523179536476e-16,-4.8 " /></g><g><path d="M 0.0,-4.8 h 5.5 " /></g><g fill="rgb(0,0,0)" fill-opacity="1.0" stroke-width="0.0"><g fill="rgb(0,0,0)" fill-opacity="1.0"><g fill="rgb(0,0,0)" fill-opacity="1.0"><path d="M -0.42023217247097855,-4.5530679933665 ZM -0.3890547263681593,-4.63217247097844 c -3.1509121061359872e-3,0.0 -1.0447761194029853e-2,2.9850746268656717e-3 -1.4096185737976785e-2 4.643449419568822e-3l -1.9900497512437814e-3,-5.140961857379768e-3 c 1.459369817578773e-2,-6.7993366500829185e-3 2.0232172470978443e-2,-1.0281923714759536e-2 2.8524046434494202e-2 -1.6252072968490877e-2h 3.1509121061359872e-3 v 8.341625207296849e-2 c 0.0,5.970149253731343e-3 8.291873963515756e-4,7.6285240464344945e-3 6.3018242122719744e-3 7.6285240464344945e-3h 8.623548922056386e-3 c 4.975124378109454e-4,0.0 1.326699834162521e-3,3.316749585406302e-4 1.326699834162521e-3 1.3266998341625207e-3v 3.648424543946932e-3 l -2.2719734660033172e-2,-3.316749585406302e-4 l -2.30514096185738e-2,3.316749585406302e-4 v -3.648424543946932e-3 c 1.6583747927031512e-4,-4.975124378109452e-4 3.3167495854063023e-4,-1.3266998341625207e-3 1.326699834162521e-3 -1.3266998341625207e-3h 9.950248756218907e-3 c 6.3018242122719744e-3,0.0 6.3018242122719744e-3,-2.8192371475953566e-3 6.3018242122719744e-3 -7.6285240464344945e-3v -5.704809286898839e-2 c 0.0,-5.638474295190713e-3 0.0,-9.618573797678276e-3 -3.6484245439469326e-3 -9.618573797678276e-3ZM -0.34759535655058055,-4.5530679933665 ZM -0.3112769485903815,-4.64311774461028 c -7.1310116086235505e-3,0.0 -1.75787728026534e-2,6.965174129353234e-3 -1.75787728026534e-2 4.560530679933665e-2c 0.0,1.3598673300165837e-2 2.4875621890547268e-3,4.0961857379767826e-2 1.7081260364842456e-2 4.0961857379767826e-2c 2.819237147595357e-3,0.0 1.0779436152570482e-2,-1.824212271973466e-3 1.4262023217247101e-2 -1.4759535655058043e-2c 2.1558872305140965e-3,-7.960199004975124e-3 3.3167495854063023e-3,-1.791044776119403e-2 3.3167495854063023e-3 -3.233830845771144e-2c 0.0,-2.1061359867330015e-2 -5.306799336650084e-3,-3.283582089552239e-2 -1.0116086235489222e-2 -3.6981757877280266e-2c -1.8242122719734663e-3,-1.658374792703151e-3 -4.311774461028193e-3,-2.4875621890547263e-3 -6.965174129353235e-3 -2.4875621890547263e-3ZM -0.3112769485903815,-4.64311774461028 ZM -0.31194029850746274,-4.5510779436152555 c -1.7744610281923718e-2,0.0 -2.9684908789386406e-2,-2.271973466003317e-2 -2.9684908789386406e-2 -4.809286898839137e-2c 0.0,-3.101160862354892e-2 1.4759535655058045e-2,-4.975124378109453e-2 3.0348258706467665e-2 -4.975124378109453e-2c 7.1310116086235505e-3,0.0 1.4262023217247101e-2,4.477611940298508e-3 1.907131011608624e-2 1.0945273631840795e-2c 6.965174129353235e-3,9.286898839137645e-3 1.0613598673300167e-2,2.1724709784411277e-2 1.0613598673300167e-2 3.731343283582089e-2c 0.0,3.681592039800995e-2 -1.8242122719734664e-2,4.958540630182421e-2 -3.0348258706467665e-2 4.958540630182421e-2ZM -0.27495854063018255,-4.5530679933665 ZM -0.2386401326699835,-4.64311774461028 c -7.1310116086235505e-3,0.0 -1.75787728026534e-2,6.965174129353234e-3 -1.75787728026534e-2 4.560530679933665e-2c 0.0,1.3598673300165837e-2 2.4875621890547268e-3,4.0961857379767826e-2 1.7081260364842456e-2 4.0961857379767826e-2c 2.819237147595357e-3,0.0 1.0779436152570482e-2,-1.824212271973466e-3 1.4262023217247101e-2 -1.4759535655058043e-2c 2.1558872305140965e-3,-7.960199004975124e-3 3.3167495854063023e-3,-1.791044776119403e-2 3.3167495854063023e-3 -3.233830845771144e-2c 0.0,-2.1061359867330015e-2 -5.306799336650084e-3,-3.283582089552239e-2 -1.0116086235489222e-2 -3.6981757877280266e-2c -1.8242122719734663e-3,-1.658374792703151e-3 -4.311774461028193e-3,-2.4875621890547263e-3 -6.965174129353235e-3 -2.4875621890547263e-3ZM -0.2386401326699835,-4.64311774461028 ZM -0.23930348258706477,-4.5510779436152555 c -1.7744610281923718e-2,0.0 -2.9684908789386406e-2,-2.271973466003317e-2 -2.9684908789386406e-2 -4.809286898839137e-2c 0.0,-3.101160862354892e-2 1.4759535655058045e-2,-4.975124378109453e-2 3.0348258706467665e-2 -4.975124378109453e-2c 7.1310116086235505e-3,0.0 1.4262023217247101e-2,4.477611940298508e-3 1.907131011608624e-2 1.0945273631840795e-2c 6.965174129353235e-3,9.286898839137645e-3 1.0613598673300167e-2,2.1724709784411277e-2 1.0613598673300167e-2 3.731343283582089e-2c 0.0,3.681592039800995e-2 -1.8242122719734664e-2,4.958540630182421e-2 -3.0348258706467665e-2 4.958540630182421e-2ZM -0.2023217247097845,-4.5530679933665 ZM -0.19286898839137653,-4.559867330016583 c 0.0,-4.809286898839138e-3 3.980099502487563e-3,-8.789386401326699e-3 8.7893864013267e-3 -8.789386401326699e-3c 4.809286898839138e-3,0.0 8.7893864013267e-3,3.980099502487562e-3 8.7893864013267e-3 8.789386401326699e-3c 0.0,4.809286898839138e-3 -3.980099502487563e-3,8.789386401326699e-3 -8.7893864013267e-3 8.789386401326699e-3c -4.809286898839138e-3,0.0 -8.7893864013267e-3,-3.980099502487562e-3 -8.7893864013267e-3 -8.789386401326699e-3ZM -0.16600331674958546,-4.5530679933665 ZM -0.1296849087893865,-4.64311774461028 c -7.1310116086235505e-3,0.0 -1.75787728026534e-2,6.965174129353234e-3 -1.75787728026534e-2 4.560530679933665e-2c 0.0,1.3598673300165837e-2 2.4875621890547268e-3,4.0961857379767826e-2 1.7081260364842456e-2 4.0961857379767826e-2c 2.819237147595357e-3,0.0 1.0779436152570482e-2,-1.824212271973466e-3 1.4262023217247101e-2 -1.4759535655058043e-2c 2.1558872305140965e-3,-7.960199004975124e-3 3.3167495854063023e-3,-1.791044776119403e-2 3.3167495854063023e-3 -3.233830845771144e-2c 0.0,-2.1061359867330015e-2 -5.306799336650084e-3,-3.283582089552239e-2 -1.0116086235489222e-2 -3.6981757877280266e-2c -1.8242122719734663e-3,-1.658374792703151e-3 -4.311774461028193e-3,-2.4875621890547263e-3 -6.965174129353235e-3 -2.4875621890547263e-3ZM -0.1296849087893865,-4.64311774461028 ZM -0.1303482587064677,-4.5510779436152555 c -1.7744610281923718e-2,0.0 -2.9684908789386406e-2,-2.271973466003317e-2 -2.9684908789386406e-2 -4.809286898839137e-2c 0.0,-3.101160862354892e-2 1.4759535655058045e-2,-4.975124378109453e-2 3.0348258706467665e-2 -4.975124378109453e-2c 7.1310116086235505e-3,0.0 1.4262023217247101e-2,4.477611940298508e-3 1.907131011608624e-2 1.0945273631840795e-2c 6.965174129353235e-3,9.286898839137645e-3 1.0613598673300167e-2,2.1724709784411277e-2 1.0613598673300167e-2 3.731343283582089e-2c 0.0,3.681592039800995e-2 -1.8242122719734664e-2,4.958540630182421e-2 -3.0348258706467665e-2 4.958540630182421e-2Z" /></g></g></g><g fill="rgb(0,0,0)" fill-opacity="1.0" stroke-width="0.0"><g fill="rgb(0,0,0)" fill-opacity="1.0"><g fill="rgb(0,0,0)" fill-opacity="1.0"><path d="M -0.34759535655058044,-3.4530679933665 ZM -0.29635157545605306,-3.481094527363183 c 0.0,-1.7081260364842456e-2 -9.286898839137645e-3,-2.5538971807628524e-2 -1.956882255389718e-2 -2.5538971807628524e-2c -7.6285240464344945e-3,0.0 -1.3432835820895522e-2,1.1608623548922056e-3 -1.990049751243781e-2 3.8142620232172473e-3l 5.306799336650083e-3,-4.527363184079602e-2 c 5.4726368159203976e-3,4.975124378109452e-4 1.1111111111111112e-2,6.633499170812604e-4 1.691542288557214e-2 6.633499170812604e-4c 8.291873963515755e-3,0.0 1.691542288557214e-2,-4.975124378109452e-4 2.5870646766169153e-2 -1.4925373134328358e-3l 9.950248756218905e-4,4.975124378109452e-4 l -2.4875621890547263e-3,1.077943615257048e-2 c -6.467661691542288e-3,6.633499170812604e-4 -1.1774461028192372e-2,8.291873963515755e-4 -1.6417910447761194e-2 8.291873963515755e-4c -7.462686567164179e-3,0.0 -1.3101160862354893e-2,-6.633499170812604e-4 -1.890547263681592e-2 -1.3266998341625207e-3l -3.150912106135987e-3,2.6202321724709786e-2 c 3.482587064676617e-3,-1.3266998341625207e-3 9.45273631840796e-3,-2.4875621890547263e-3 1.5920398009950248e-2 -2.4875621890547263e-3c 1.7578772802653398e-2,0.0 2.736318407960199e-2,1.5257048092868989e-2 2.736318407960199e-2 3.0514096185737978e-2c 0.0,1.857379767827529e-2 -1.2935323383084577e-2,3.283582089552239e-2 -3.167495854063018e-2 3.283582089552239e-2c -9.45273631840796e-3,0.0 -2.321724709784411e-2,-5.306799336650083e-3 -2.321724709784411e-2 -1.1774461028192372e-2c 0.0,-3.150912106135987e-3 2.6533996683250414e-3,-5.306799336650083e-3 5.638474295190713e-3 -5.306799336650083e-3c 3.316749585406302e-3,0.0 5.4726368159203976e-3,2.4875621890547263e-3 7.462686567164179e-3 5.140961857379768e-3c 2.4875621890547263e-3,2.9850746268656717e-3 5.140961857379768e-3,6.301824212271974e-3 1.0447761194029851e-2 6.301824212271974e-3c 1.0613598673300166e-2,0.0 1.9402985074626865e-2,-9.950248756218905e-3 1.9402985074626865e-2 -2.437810945273632e-2ZM -0.27495854063018244,-3.4530679933665 ZM -0.2386401326699834,-3.543117744610281 c -7.131011608623549e-3,0.0 -1.7578772802653398e-2,6.965174129353234e-3 -1.7578772802653398e-2 4.560530679933665e-2c 0.0,1.3598673300165837e-2 2.4875621890547263e-3,4.0961857379767826e-2 1.7081260364842456e-2 4.0961857379767826e-2c 2.8192371475953566e-3,0.0 1.077943615257048e-2,-1.824212271973466e-3 1.4262023217247097e-2 -1.4759535655058043e-2c 2.155887230514096e-3,-7.960199004975124e-3 3.316749585406302e-3,-1.791044776119403e-2 3.316749585406302e-3 -3.233830845771144e-2c 0.0,-2.1061359867330015e-2 -5.306799336650083e-3,-3.283582089552239e-2 -1.011608623548922e-2 -3.6981757877280266e-2c -1.824212271973466e-3,-1.658374792703151e-3 -4.311774461028192e-3,-2.4875621890547263e-3 -6.965174129353234e-3 -2.4875621890547263e-3ZM -0.2386401326699834,-3.543117744610281 ZM -0.2393034825870647,-3.4510779436152563 c -1.7744610281923714e-2,0.0 -2.96849087893864e-2,-2.271973466003317e-2 -2.96849087893864e-2 -4.809286898839137e-2c 0.0,-3.101160862354892e-2 1.4759535655058043e-2,-4.975124378109453e-2 3.034825870646766e-2 -4.975124378109453e-2c 7.131011608623549e-3,0.0 1.4262023217247097e-2,4.477611940298508e-3 1.9071310116086235e-2 1.0945273631840795e-2c 6.965174129353234e-3,9.286898839137645e-3 1.0613598673300166e-2,2.1724709784411277e-2 1.0613598673300166e-2 3.731343283582089e-2c 0.0,3.681592039800995e-2 -1.824212271973466e-2,4.958540630182421e-2 -3.034825870646766e-2 4.958540630182421e-2ZM -0.2023217247097844,-3.4530679933665 ZM -0.19286898839137645,-3.459867330016583 c 0.0,-4.809286898839138e-3 3.980099502487562e-3,-8.789386401326699e-3 8.789386401326699e-3 -8.789386401326699e-3c 4.809286898839138e-3,0.0 8.789386401326699e-3,3.980099502487562e-3 8.789386401326699e-3 8.789386401326699e-3c 0.0,4.809286898839138e-3 -3.980099502487562e-3,8.789386401326699e-3 -8.789386401326699e-3 8.789386401326699e-3c -4.809286898839138e-3,0.0 -8.789386401326699e-3,-3.980099502487562e-3 -8.789386401326699e-3 -8.789386401326699e-3ZM -0.1660033167495854,-3.4530679933665 ZM -0.1296849087893864,-3.543117744610281 c -7.131011608623549e-3,0.0 -1.7578772802653398e-2,6.965174129353234e-3 -1.7578772802653398e-2 4.560530679933665e-2c 0.0,1.3598673300165837e-2 2.4875621890547263e-3,4.0961857379767826e-2 1.7081260364842456e-2 4.0961857379767826e-2c 2.8192371475953566e-3,0.0 1.077943615257048e-2,-1.824212271973466e-3 1.4262023217247097e-2 -1.4759535655058043e-2c 2.155887230514096e-3,-7.960199004975124e-3 3.316749585406302e-3,-1.791044776119403e-2 3.316749585406302e-3 -3.233830845771144e-2c 0.0,-2.1061359867330015e-2 -5.306799336650083e-3,-3.283582089552239e-2 -1.011608623548922e-2 -3.6981757877280266e-2c -1.824212271973466e-3,-1.658374792703151e-3 -4.311774461028192e-3,-2.4875621890547263e-3 -6.965174129353234e-3 -2.4875621890547263e-3ZM -0.1296849087893864,-3.543117744610281 ZM -0.13034825870646766,-3.4510779436152563 c -1.7744610281923714e-2,0.0 -2.96849087893864e-2,-2.271973466003317e-2 -2.96849087893864e-2 -4.809286898839137e-2c 0.0,-3.101160862354892e-2 1.4759535655058043e-2,-4.975124378109453e-2 3.034825870646766e-2 -4.975124378109453e-2c 7.131011608623549e-3,0.0 1.4262023217247097e-2,4.477611940298508e-3 1.9071310116086235e-2 1.0945273631840795e-2c 6.965174129353234e-3,9.286898839137645e-3 1.0613598673300166e-2,2.1724709784411277e-2 1.0613598673300166e-2 3.731343283582089e-2c 0.0,3.681592039800995e-2 -1.824212271973466e-2,4.958540630182421e-2 -3.034825870646766e-2 4.958540630182421e-2Z" /></g></g></g><g fill="rgb(0,0,0)" fill-opacity="1.0" stroke-width="0.0"><g fill="rgb(0,0,0)" fill-opacity="1.0"><g fill="rgb(0,0,0)" fill-opacity="1.0"><path d="M -0.27495854063018244,-2.3530679933665004 ZM -0.2386401326699834,-2.4431177446102814 c -7.131011608623549e-3,0.0 -1.7578772802653398e-2,6.965174129353234e-3 -1.7578772802653398e-2 4.560530679933665e-2c 0.0,1.3598673300165837e-2 2.4875621890547263e-3,4.0961857379767826e-2 1.7081260364842456e-2 4.0961857379767826e-2c 2.8192371475953566e-3,0.0 1.077943615257048e-2,-1.824212271973466e-3 1.4262023217247097e-2 -1.4759535655058043e-2c 2.155887230514096e-3,-7.960199004975124e-3 3.316749585406302e-3,-1.791044776119403e-2 3.316749585406302e-3 -3.233830845771144e-2c 0.0,-2.1061359867330015e-2 -5.306799336650083e-3,-3.283582089552239e-2 -1.011608623548922e-2 -3.6981757877280266e-2c -1.824212271973466e-3,-1.658374792703151e-3 -4.311774461028192e-3,-2.4875621890547263e-3 -6.965174129353234e-3 -2.4875621890547263e-3ZM -0.2386401326699834,-2.4431177446102814 ZM -0.23930348258706466,-2.3510779436152567 c -1.7744610281923714e-2,0.0 -2.96849087893864e-2,-2.271973466003317e-2 -2.96849087893864e-2 -4.809286898839137e-2c 0.0,-3.101160862354892e-2 1.4759535655058043e-2,-4.975124378109453e-2 3.034825870646766e-2 -4.975124378109453e-2c 7.131011608623549e-3,0.0 1.4262023217247097e-2,4.477611940298508e-3 1.9071310116086235e-2 1.0945273631840795e-2c 6.965174129353234e-3,9.286898839137645e-3 1.0613598673300166e-2,2.1724709784411277e-2 1.0613598673300166e-2 3.731343283582089e-2c 0.0,3.681592039800995e-2 -1.824212271973466e-2,4.958540630182421e-2 -3.034825870646766e-2 4.958540630182421e-2ZM -0.20232172470978438,-2.3530679933665004 ZM -0.19286898839137645,-2.3598673300165833 c 0.0,-4.809286898839138e-3 3.980099502487562e-3,-8.789386401326699e-3 8.789386401326699e-3 -8.789386401326699e-3c 4.809286898839138e-3,0.0 8.789386401326699e-3,3.980099502487562e-3 8.789386401326699e-3 8.789386401326699e-3c 0.0,4.809286898839138e-3 -3.980099502487562e-3,8.789386401326699e-3 -8.789386401326699e-3 8.789386401326699e-3c -4.809286898839138e-3,0.0 -8.789386401326699e-3,-3.980099502487562e-3 -8.789386401326699e-3 -8.789386401326699e-3ZM -0.1660033167495854,-2.3530679933665004 ZM -0.12968490878938638,-2.4431177446102814 c -7.131011608623549e-3,0.0 -1.7578772802653398e-2,6.965174129353234e-3 -1.7578772802653398e-2 4.560530679933665e-2c 0.0,1.3598673300165837e-2 2.4875621890547263e-3,4.0961857379767826e-2 1.7081260364842456e-2 4.0961857379767826e-2c 2.8192371475953566e-3,0.0 1.077943615257048e-2,-1.824212271973466e-3 1.4262023217247097e-2 -1.4759535655058043e-2c 2.155887230514096e-3,-7.960199004975124e-3 3.316749585406302e-3,-1.791044776119403e-2 3.316749585406302e-3 -3.233830845771144e-2c 0.0,-2.1061359867330015e-2 -5.306799336650083e-3,-3.283582089552239e-2 -1.011608623548922e-2 -3.6981757877280266e-2c -1.824212271973466e-3,-1.658374792703151e-3 -4.311774461028192e-3,-2.4875621890547263e-3 -6.965174129353234e-3 -2.4875621890547263e-3ZM -0.12968490878938638,-2.4431177446102814 ZM -0.13034825870646766,-2.3510779436152567 c -1.7744610281923714e-2,0.0 -2.96849087893864e-2,-2.271973466003317e-2 -2.96849087893864e-2 -4.809286898839137e-2c 0.0,-3.101160862354892e-2 1.4759535655058043e-2,-4.975124378109453e-2 3.034825870646766e-2 -4.975124378109453e-2c 7.131011608623549e-3,0.0 1.4262023217247097e-2,4.477611940298508e-3 1.9071310116086235e-2 1.0945273631840795e-2c 6.965174129353234e-3,9.286898839137645e-3 1.0613598673300166e-2,2.1724709784411277e-2 1.0613598673300166e-2 3.731343283582089e-2c 0.0,3.681592039800995e-2 -1.824212271973466e-2,4.958540630182421e-2 -3.034825870646766e-2 4.958540630182421e-2Z" /></g></g></g><g fill="rgb(0,0,0)" fill-opacity="1.0" stroke-width="0.0"><g fill="rgb(0,0,0)" fill-opacity="1.0"><g fill="rgb(0,0,0)" fill-opacity="1.0"><path d="M -0.4028192371475954,-1.2530679933665008 ZM -0.35737976782752906,-1.292205638474295 h -3.747927031509121e-2 c -1.4925373134328358e-3,0.0 -2.4875621890547263e-3,-1.3266998341625207e-3 -2.4875621890547263e-3 -2.8192371475953566e-3c 0.0,-2.6533996683250414e-3 2.155887230514096e-3,-6.135986733001658e-3 4.1459369817578775e-3 -6.135986733001658e-3h 3.797678275290216e-2 c 1.658374792703151e-3,0.0 2.321724709784411e-3,1.4925373134328358e-3 2.321724709784411e-3 2.9850746268656717e-3c 0.0,1.824212271973466e-3 -2.321724709784411e-3,5.970149253731343e-3 -4.477611940298508e-3 5.970149253731343e-3ZM -0.3475953565505805,-1.2530679933665008 ZM -0.2963515754560531,-1.281094527363184 c 0.0,-1.7081260364842456e-2 -9.286898839137645e-3,-2.5538971807628524e-2 -1.956882255389718e-2 -2.5538971807628524e-2c -7.6285240464344945e-3,0.0 -1.3432835820895522e-2,1.1608623548922056e-3 -1.990049751243781e-2 3.8142620232172473e-3l 5.306799336650083e-3,-4.527363184079602e-2 c 5.4726368159203976e-3,4.975124378109452e-4 1.1111111111111112e-2,6.633499170812604e-4 1.691542288557214e-2 6.633499170812604e-4c 8.291873963515755e-3,0.0 1.691542288557214e-2,-4.975124378109452e-4 2.5870646766169153e-2 -1.4925373134328358e-3l 9.950248756218905e-4,4.975124378109452e-4 l -2.4875621890547263e-3,1.077943615257048e-2 c -6.467661691542288e-3,6.633499170812604e-4 -1.1774461028192372e-2,8.291873963515755e-4 -1.6417910447761194e-2 8.291873963515755e-4c -7.462686567164179e-3,0.0 -1.3101160862354893e-2,-6.633499170812604e-4 -1.890547263681592e-2 -1.3266998341625207e-3l -3.150912106135987e-3,2.6202321724709786e-2 c 3.482587064676617e-3,-1.3266998341625207e-3 9.45273631840796e-3,-2.4875621890547263e-3 1.5920398009950248e-2 -2.4875621890547263e-3c 1.7578772802653398e-2,0.0 2.736318407960199e-2,1.5257048092868989e-2 2.736318407960199e-2 3.0514096185737978e-2c 0.0,1.857379767827529e-2 -1.2935323383084577e-2,3.283582089552239e-2 -3.167495854063018e-2 3.283582089552239e-2c -9.45273631840796e-3,0.0 -2.321724709784411e-2,-5.306799336650083e-3 -2.321724709784411e-2 -1.1774461028192372e-2c 0.0,-3.150912106135987e-3 2.6533996683250414e-3,-5.306799336650083e-3 5.638474295190713e-3 -5.306799336650083e-3c 3.316749585406302e-3,0.0 5.4726368159203976e-3,2.4875621890547263e-3 7.462686567164179e-3 5.140961857379768e-3c 2.4875621890547263e-3,2.9850746268656717e-3 5.140961857379768e-3,6.301824212271974e-3 1.0447761194029851e-2 6.301824212271974e-3c 1.0613598673300166e-2,0.0 1.9402985074626865e-2,-9.950248756218905e-3 1.9402985074626865e-2 -2.437810945273632e-2ZM -0.27495854063018244,-1.2530679933665008 ZM -0.23864013266998346,-1.3431177446102818 c -7.131011608623549e-3,0.0 -1.7578772802653398e-2,6.965174129353234e-3 -1.7578772802653398e-2 4.560530679933665e-2c 0.0,1.3598673300165837e-2 2.4875621890547263e-3,4.0961857379767826e-2 1.7081260364842456e-2 4.0961857379767826e-2c 2.8192371475953566e-3,0.0 1.077943615257048e-2,-1.824212271973466e-3 1.4262023217247097e-2 -1.4759535655058043e-2c 2.155887230514096e-3,-7.960199004975124e-3 3.316749585406302e-3,-1.791044776119403e-2 3.316749585406302e-3 -3.233830845771144e-2c 0.0,-2.1061359867330015e-2 -5.306799336650083e-3,-3.283582089552239e-2 -1.011608623548922e-2 -3.6981757877280266e-2c -1.824212271973466e-3,-1.658374792703151e-3 -4.311774461028192e-3,-2.4875621890547263e-3 -6.965174129353234e-3 -2.4875621890547263e-3ZM -0.23864013266998346,-1.3431177446102818 ZM -0.23930348258706471,-1.2510779436152568 c -1.7744610281923714e-2,0.0 -2.96849087893864e-2,-2.271973466003317e-2 -2.96849087893864e-2 -4.809286898839137e-2c 0.0,-3.101160862354892e-2 1.4759535655058043e-2,-4.975124378109453e-2 3.034825870646766e-2 -4.975124378109453e-2c 7.131011608623549e-3,0.0 1.4262023217247097e-2,4.477611940298508e-3 1.9071310116086235e-2 1.0945273631840795e-2c 6.965174129353234e-3,9.286898839137645e-3 1.0613598673300166e-2,2.1724709784411277e-2 1.0613598673300166e-2 3.731343283582089e-2c 0.0,3.681592039800995e-2 -1.824212271973466e-2,4.958540630182421e-2 -3.034825870646766e-2 4.958540630182421e-2ZM -0.20232172470978446,-1.2530679933665008 ZM -0.1928689883913765,-1.2598673300165837 c 0.0,-4.809286898839138e-3 3.980099502487562e-3,-8.789386401326699e-3 8.789386401326699e-3 -8.789386401326699e-3c 4.809286898839138e-3,0.0 8.789386401326699e-3,3.980099502487562e-3 8.789386401326699e-3 8.789386401326699e-3c 0.0,4.809286898839138e-3 -3.980099502487562e-3,8.789386401326699e-3 -8.789386401326699e-3 8.789386401326699e-3c -4.809286898839138e-3,0.0 -8.789386401326699e-3,-3.980099502487562e-3 -8.789386401326699e-3 -8.789386401326699e-3ZM -0.16600331674958546,-1.2530679933665008 ZM -0.12968490878938646,-1.3431177446102818 c -7.131011608623549e-3,0.0 -1.7578772802653398e-2,6.965174129353234e-3 -1.7578772802653398e-2 4.560530679933665e-2c 0.0,1.3598673300165837e-2 2.4875621890547263e-3,4.0961857379767826e-2 1.7081260364842456e-2 4.0961857379767826e-2c 2.8192371475953566e-3,0.0 1.077943615257048e-2,-1.824212271973466e-3 1.4262023217247097e-2 -1.4759535655058043e-2c 2.155887230514096e-3,-7.960199004975124e-3 3.316749585406302e-3,-1.791044776119403e-2 3.316749585406302e-3 -3.233830845771144e-2c 0.0,-2.1061359867330015e-2 -5.306799336650083e-3,-3.283582089552239e-2 -1.011608623548922e-2 -3.6981757877280266e-2c -1.824212271973466e-3,-1.658374792703151e-3 -4.311774461028192e-3,-2.4875621890547263e-3 -6.965174129353234e-3 -2.4875621890547263e-3ZM -0.12968490878938646,-1.3431177446102818 ZM -0.13034825870646768,-1.2510779436152568 c -1.7744610281923714e-2,0.0 -2.96849087893864e-2,-2.271973466003317e-2 -2.96849087893864e-2 -4.809286898839137e-2c 0.0,-3.101160862354892e-2 1.4759535655058043e-2,-4.975124378109453e-2 3.034825870646766e-2 -4.975124378109453e-2c 7.131011608623549e-3,0.0 1.4262023217247097e-2,4.477611940298508e-3 1.9071310116086235e-2 1.0945273631840795e-2c 6.965174129353234e-3,9.286898839137645e-3 1.0613598673300166e-2,2.1724709784411277e-2 1.0613598673300166e-2 3.731343283582089e-2c 0.0,3.681592039800995e-2 -1.824212271973466e-2,4.958540630182421e-2 -3.034825870646766e-2 4.958540630182421e-2Z" /></g></g></g><g fill="rgb(0,0,0)" fill-opacity="1.0" stroke-width="0.0"><g fill="rgb(0,0,0)" fill-opacity="1.0"><g fill="rgb(0,0,0)" fill-opacity="1.0"><path d="M -0.4754560530679933,-0.15306799336650084 ZM -0.430016583747927,-0.1922056384742952 h -3.747927031509121e-2 c -1.4925373134328358e-3,0.0 -2.4875621890547263e-3,-1.3266998341625207e-3 -2.4875621890547263e-3 -2.8192371475953566e-3c 0.0,-2.6533996683250414e-3 2.155887230514096e-3,-6.135986733001658e-3 4.1459369817578775e-3 -6.135986733001658e-3h 3.797678275290216e-2 c 1.658374792703151e-3,0.0 2.321724709784411e-3,1.4925373134328358e-3 2.321724709784411e-3 2.9850746268656717e-3c 0.0,1.824212271973466e-3 -2.321724709784411e-3,5.970149253731343e-3 -4.477611940298508e-3 5.970149253731343e-3ZM -0.42023217247097844,-0.15306799336650084 ZM -0.3890547263681592,-0.23217247097844113 c -3.150912106135987e-3,0.0 -1.0447761194029851e-2,2.9850746268656717e-3 -1.4096185737976783e-2 4.643449419568822e-3l -1.990049751243781e-3,-5.140961857379768e-3 c 1.4593698175787729e-2,-6.7993366500829185e-3 2.023217247097844e-2,-1.0281923714759536e-2 2.8524046434494195e-2 -1.6252072968490877e-2h 3.150912106135987e-3 v 8.341625207296849e-2 c 0.0,5.970149253731343e-3 8.291873963515755e-4,7.6285240464344945e-3 6.301824212271974e-3 7.6285240464344945e-3h 8.623548922056384e-3 c 4.975124378109452e-4,0.0 1.3266998341625207e-3,3.316749585406302e-4 1.3266998341625207e-3 1.3266998341625207e-3v 3.648424543946932e-3 l -2.271973466003317e-2,-3.316749585406302e-4 l -2.3051409618573798e-2,3.316749585406302e-4 v -3.648424543946932e-3 c 1.658374792703151e-4,-4.975124378109452e-4 3.316749585406302e-4,-1.3266998341625207e-3 1.3266998341625207e-3 -1.3266998341625207e-3h 9.950248756218905e-3 c 6.301824212271974e-3,0.0 6.301824212271974e-3,-2.8192371475953566e-3 6.301824212271974e-3 -7.6285240464344945e-3v -5.704809286898839e-2 c 0.0,-5.638474295190713e-3 0.0,-9.618573797678276e-3 -3.648424543946932e-3 -9.618573797678276e-3ZM -0.3475953565505804,-0.15306799336650084 ZM -0.3112769485903814,-0.24311774461028193 c -7.131011608623549e-3,0.0 -1.7578772802653398e-2,6.965174129353234e-3 -1.7578772802653398e-2 4.560530679933665e-2c 0.0,1.3598673300165837e-2 2.4875621890547263e-3,4.0961857379767826e-2 1.7081260364842456e-2 4.0961857379767826e-2c 2.8192371475953566e-3,0.0 1.077943615257048e-2,-1.824212271973466e-3 1.4262023217247097e-2 -1.4759535655058043e-2c 2.155887230514096e-3,-7.960199004975124e-3 3.316749585406302e-3,-1.791044776119403e-2 3.316749585406302e-3 -3.233830845771144e-2c 0.0,-2.1061359867330015e-2 -5.306799336650083e-3,-3.283582089552239e-2 -1.011608623548922e-2 -3.6981757877280266e-2c -1.824212271973466e-3,-1.658374792703151e-3 -4.311774461028192e-3,-2.4875621890547263e-3 -6.965174129353234e-3 -2.4875621890547263e-3ZM -0.3112769485903814,-0.24311774461028193 ZM -0.31194029850746263,-0.15107794361525706 c -1.7744610281923714e-2,0.0 -2.96849087893864e-2,-2.271973466003317e-2 -2.96849087893864e-2 -4.809286898839137e-2c 0.0,-3.101160862354892e-2 1.4759535655058043e-2,-4.975124378109453e-2 3.034825870646766e-2 -4.975124378109453e-2c 7.131011608623549e-3,0.0 1.4262023217247097e-2,4.477611940298508e-3 1.9071310116086235e-2 1.0945273631840795e-2c 6.965174129353234e-3,9.286898839137645e-3 1.0613598673300166e-2,2.1724709784411277e-2 1.0613598673300166e-2 3.731343283582089e-2c 0.0,3.681592039800995e-2 -1.824212271973466e-2,4.958540630182421e-2 -3.034825870646766e-2 4.958540630182421e-2ZM -0.27495854063018244,-0.15306799336650084 ZM -0.2386401326699834,-0.24311774461028193 c -7.131011608623549e-3,0.0 -1.7578772802653398e-2,6.965174129353234e-3 -1.7578772802653398e-2 4.560530679933665e-2c 0.0,1.3598673300165837e-2 2.4875621890547263e-3,4.0961857379767826e-2 1.7081260364842456e-2 4.0961857379767826e-2c 2.8192371475953566e-3,0.0 1.077943615257048e-2,-1.824212271973466e-3 1.4262023217247097e-2 -1.4759535655058043e-2c 2.155887230514096e-3,-7.960199004975124e-3 3.316749585406302e-3,-1.791044776119403e-2 3.316749585406302e-3 -3.233830845771144e-2c 0.0,-2.1061359867330015e-2 -5.306799336650083e-3,-3.283582089552239e-2 -1.011608623548922e-2 -3.6981757877280266e-2c -1.824212271973466e-3,-1.658374792703151e-3 -4.311774461028192e-3,-2.4875621890547263e-3 -6.965174129353234e-3 -2.4875621890547263e-3ZM -0.2386401326699834,-0.24311774461028193 ZM -0.23930348258706466,-0.15107794361525706 c -1.7744610281923714e-2,0.0 -2.96849087893864e-2,-2.271973466003317e-2 -2.96849087893864e-2 -4.809286898839137e-2c 0.0,-3.101160862354892e-2 1.4759535655058043e-2,-4.975124378109453e-2 3.034825870646766e-2 -4.975124378109453e-2c 7.131011608623549e-3,0.0 1.4262023217247097e-2,4.477611940298508e-3 1.9071310116086235e-2 1.0945273631840795e-2c 6.965174129353234e-3,9.286898839137645e-3 1.0613598673300166e-2,2.1724709784411277e-2 1.0613598673300166e-2 3.731343283582089e-2c 0.0,3.681592039800995e-2 -1.824212271973466e-2,4.958540630182421e-2 -3.034825870646766e-2 4.958540630182421e-2ZM -0.2023217247097844,-0.15306799336650084 ZM -0.19286898839137642,-0.15986733001658376 c 0.0,-4.809286898839138e-3 3.980099502487562e-3,-8.789386401326699e-3 8.789386401326699e-3 -8.789386401326699e-3c 4.809286898839138e-3,0.0 8.789386401326699e-3,3.980099502487562e-3 8.789386401326699e-3 8.789386401326699e-3c 0.0,4.809286898839138e-3 -3.980099502487562e-3,8.789386401326699e-3 -8.789386401326699e-3 8.789386401326699e-3c -4.809286898839138e-3,0.0 -8.789386401326699e-3,-3.980099502487562e-3 -8.789386401326699e-3 -8.789386401326699e-3ZM -0.16600331674958538,-0.15306799336650084 ZM -0.1296849087893864,-0.24311774461028193 c -7.131011608623549e-3,0.0 -1.7578772802653398e-2,6.965174129353234e-3 -1.7578772802653398e-2 4.560530679933665e-2c 0.0,1.3598673300165837e-2 2.4875621890547263e-3,4.0961857379767826e-2 1.7081260364842456e-2 4.0961857379767826e-2c 2.8192371475953566e-3,0.0 1.077943615257048e-2,-1.824212271973466e-3 1.4262023217247097e-2 -1.4759535655058043e-2c 2.155887230514096e-3,-7.960199004975124e-3 3.316749585406302e-3,-1.791044776119403e-2 3.316749585406302e-3 -3.233830845771144e-2c 0.0,-2.1061359867330015e-2 -5.306799336650083e-3,-3.283582089552239e-2 -1.011608623548922e-2 -3.6981757877280266e-2c -1.824212271973466e-3,-1.658374792703151e-3 -4.311774461028192e-3,-2.4875621890547263e-3 -6.965174129353234e-3 -2.4875621890547263e-3ZM -0.1296849087893864,-0.24311774461028193 ZM -0.13034825870646763,-0.15107794361525706 c -1.7744610281923714e-2,0.0 -2.96849087893864e-2,-2.271973466003317e-2 -2.96849087893864e-2 -4.809286898839137e-2c 0.0,-3.101160862354892e-2 1.4759535655058043e-2,-4.975124378109453e-2 3.034825870646766e-2 -4.975124378109453e-2c 7.131011608623549e-3,0.0 1.4262023217247097e-2,4.477611940298508e-3 1.9071310116086235e-2 1.0945273631840795e-2c 6.965174129353234e-3,9.286898839137645e-3 1.0613598673300166e-2,2.1724709784411277e-2 1.0613598673300166e-2 3.731343283582089e-2c 0.0,3.681592039800995e-2 -1.824212271973466e-2,4.958540630182421e-2 -3.034825870646766e-2 4.958540630182421e-2Z" /></g></g></g><g><g><path d="M -2.816687638038914e-16,-4.600000000000002 l 5.0e-2,-3.061616997868383e-18 " /><path d="M -2.6819764901327047e-16,-4.380000000000002 l 5.0e-2,-3.061616997868383e-18 " /><path d="M -2.547265342226496e-16,-4.160000000000001 l 5.0e-2,-3.061616997868383e-18 " /><path d="M -2.4125541943202866e-16,-3.9400000000000013 l 5.0e-2,-3.061616997868383e-18 " /><path d="M -2.277843046414078e-16,-3.720000000000001 l 5.0e-2,-3.061616997868383e-18 " /><path d="M -2.1431318985078685e-16,-3.500000000000001 l 5.0e-2,-3.061616997868383e-18 " /><path d="M -2.0084207506016595e-16,-3.2800000000000007 l 5.0e-2,-3.061616997868383e-18 " /><path d="M -1.8737096026954507e-16,-3.0600000000000005 l 5.0e-2,-3.061616997868383e-18 " /><path d="M -1.7389984547892416e-16,-2.8400000000000003 l 5.0e-2,-3.061616997868383e-18 " /><path d="M -1.6042873068830326e-16,-2.62 l 5.0e-2,-3.061616997868383e-18 " /><path d="M -1.4695761589768236e-16,-2.4 l 5.0e-2,-3.061616997868383e-18 " /><path d="M -1.3348650110706148e-16,-2.1799999999999997 l 5.0e-2,-3.061616997868383e-18 " /><path d="M -1.200153863164406e-16,-1.9599999999999997 l 5.0e-2,-3.061616997868383e-18 " /><path d="M -1.0654427152581971e-16,-1.7399999999999998 l 5.0e-2,-3.061616997868383e-18 " /><path d="M -9.307315673519883e-17,-1.5199999999999998 l 5.0e-2,-3.061616997868383e-18 " /><path d="M -7.960204194457794e-17,-1.2999999999999998 l 5.0e-2,-3.061616997868383e-18 " /><path d="M -6.613092715395706e-17,-1.0799999999999998 l 5.0e-2,-3.061616997868383e-18 " /><path d="M -5.265981236333618e-17,-0.8599999999999999 l 5.0e-2,-3.061616997868383e-18 " /><path d="M -3.91886975727153e-17,-0.6399999999999999 l 5.0e-2,-3.061616997868383e-18 " /><path d="M -2.5717582782094416e-17,-0.42 l 5.0e-2,-3.061616997868383e-18 " /><path d="M -1.2246467991473533e-17,-0.2 l 5.0e-2,-3.061616997868383e-18 " /><path d="M -2.816687638038913e-16,-4.6000000000000005 l 0.1,-6.123233995736766e-18 " /><path d="M -2.143131898507868e-16,-3.5 l 0.1,-6.123233995736766e-18 " /><path d="M -1.4695761589768236e-16,-2.4 l 0.1,-6.123233995736766e-18 " /><path d="M -7.960204194457794e-17,-1.2999999999999998 l 0.1,-6.123233995736766e-18 " /><path d="M -1.2246467991473533e-17,-0.2 l 0.1,-6.123233995736766e-18 " /></g><path d="M 0.0,0.0 l -2.9391523179536476e-16,-4.8 " /></g></g></g></g></g></svg>